<svg width="24" height="24" viewBox="0 0 24 24" fill="none" xmlns="http://www.w3.org/2000/svg">
<path d="M9.23478 14.1652C12.287 14.1652 14.7652 11.6869 14.7652 8.66084C14.7652 5.60867 12.287 3.15649 9.23478 3.15649C6.18261 3.15649 3.70435 5.63476 3.70435 8.66084C3.73043 11.6869 6.2087 14.1652 9.23478 14.1652ZM9.23478 5.21736C11.1391 5.21736 12.6783 6.75649 12.6783 8.63476C12.6783 10.513 11.1391 12.0521 9.23478 12.0521C7.33044 12.0521 5.7913 10.513 5.7913 8.63476C5.81739 6.75649 7.35652 5.21736 9.23478 5.21736ZM11.7391 14.6608C11.4522 14.5826 11.1391 14.6087 10.8783 14.7652L9.23478 15.7565L7.5913 14.7652C7.33043 14.6087 7.01739 14.5826 6.73043 14.6608C5.13913 15.1826 0 17.0348 0 19.8261C0 20.4 0.469565 20.8695 1.04348 20.8695H17.4261C18 20.8695 18.4696 20.4 18.4696 19.8261C18.4696 17.0348 13.3304 15.1826 11.7391 14.6608ZM2.92174 18.7826C3.8087 18.1043 5.29565 17.3739 6.91304 16.8L8.68696 17.8695C9.02609 18.0782 9.44348 18.0782 9.75652 17.8695L11.5304 16.8C13.1478 17.3478 14.6348 18.1043 15.5217 18.7826H2.92174ZM23.7391 18C23.7391 18.4435 23.4 18.7826 22.9565 18.7826H19.4609C19.0174 18.7826 18.6783 18.4435 18.6783 18C18.6783 17.5565 19.0174 17.2174 19.4609 17.2174H21.7826C21.3913 16.6956 20.7652 16.2782 19.9826 15.8608C19.5913 15.6521 19.4609 15.1826 19.6696 14.8174C19.8783 14.4261 20.3478 14.2956 20.7391 14.5043C21.8609 15.1043 23.7391 16.3826 23.7391 18ZM19.3565 11.113C19.3565 9.96519 18.4174 9.05215 17.2957 9.05215C17.0087 9.05215 16.7478 9.10432 16.487 9.20867C16.0957 9.36519 15.6261 9.18258 15.4696 8.79128C15.313 8.39997 15.4957 7.93041 15.887 7.77389C16.3304 7.59128 16.8 7.48693 17.2957 7.48693C19.3043 7.48693 20.9217 9.10432 20.9217 11.113C20.9217 13.1217 19.2783 14.7391 17.2957 14.7391C16.2522 14.7391 15.2609 14.2956 14.5826 13.513C14.2957 13.2 14.3217 12.7043 14.6609 12.4174C14.9739 12.1304 15.4696 12.1565 15.7565 12.4956C16.1478 12.9391 16.7217 13.2 17.3217 13.2C18.4174 13.1739 19.3565 12.2348 19.3565 11.113Z" fill="#0073C0"/>
</svg>
