<svg width="22" height="22" viewBox="0 0 22 22" fill="none" xmlns="http://www.w3.org/2000/svg">
<path d="M22 13.2718C22 13.5348 21.9043 13.7739 21.713 13.9413L17.2652 18.3892C17.0739 18.5805 16.8348 18.6522 16.5957 18.6522C16.3565 18.6522 16.0935 18.5326 15.9261 18.3652C15.5435 17.9826 15.5435 17.3609 15.9261 16.9783L18.7239 14.1087H9.37391C8.84783 14.1087 8.41739 13.6783 8.41739 13.1522C8.41739 12.6261 8.84783 12.1957 9.37391 12.1957H18.7239L15.9261 9.44568C15.5435 9.06307 15.5435 8.51307 15.9261 8.15437C16.3087 7.77176 16.9065 7.77176 17.2891 8.15437L21.737 12.6022C21.9043 12.7696 22 13.0087 22 13.2718ZM3.27609 9.80437H12.6261C13.1522 9.80437 13.5826 9.37394 13.5826 8.84785C13.5826 8.32176 13.1522 7.89133 12.6261 7.89133H3.27609L6.07391 5.02176C6.45652 4.63915 6.45652 4.01741 6.07391 3.63481C5.6913 3.2522 5.09348 3.2522 4.71087 3.61089L0.286957 8.05872C0.0956522 8.22611 0 8.46524 0 8.72828C0 8.99133 0.0956522 9.23046 0.286957 9.39785L4.73478 13.8457C4.92609 14.037 5.16522 14.1326 5.40435 14.1326C5.64348 14.1326 5.90652 14.037 6.07391 13.8457C6.45652 13.4631 6.45652 12.9131 6.07391 12.5544L3.27609 9.80437Z" fill="#0073C0"/>
</svg>
