<svg width="22" height="22" viewBox="0 0 22 22" fill="none" xmlns="http://www.w3.org/2000/svg">
<path d="M18.437 2.77392C18.437 1.38696 17.2891 0.239136 15.8783 0.239136C14.4674 0.239136 13.3196 1.38696 13.3196 2.77392C13.3196 3.82609 13.9652 4.73479 14.8978 5.1174C14.8739 5.54783 14.6109 8.22609 10.8565 9.58914C9.1587 10.2109 7.8913 11.0478 7.17391 11.9087V5.1174C8.13044 4.73479 8.70435 3.82609 8.70435 2.77392C8.70435 1.38696 7.53261 0.239136 6.14565 0.239136C4.73478 0.239136 3.63478 1.38696 3.63478 2.77392C3.63478 3.82609 4.30435 4.73479 5.26087 5.1174V16.8826C4.30435 17.2652 3.61087 18.1739 3.61087 19.2261C3.61087 20.613 4.73478 21.7609 6.12174 21.7609C7.53261 21.7609 8.70435 20.613 8.70435 19.2261C8.70435 18.1739 8.10652 17.2652 7.15 16.8826V16.1174C7.15 15.8544 7.26957 12.937 11.5261 11.3826C16.5957 9.54131 16.8348 5.59566 16.8348 5.1174C17.7913 4.73479 18.437 3.82609 18.437 2.77392ZM6.12174 1.67392C6.74348 1.67392 7.22174 2.17609 7.22174 2.77392C7.22174 3.37174 6.71957 3.87392 6.12174 3.87392C5.5 3.87392 5.02174 3.37174 5.02174 2.77392C5.02174 2.17609 5.5 1.67392 6.12174 1.67392ZM6.12174 20.3261C5.5 20.3261 5.02174 19.8239 5.02174 19.2261C5.02174 18.6283 5.52391 18.1261 6.12174 18.1261C6.74348 18.1261 7.22174 18.6283 7.22174 19.2261C7.22174 19.8239 6.71957 20.3261 6.12174 20.3261ZM15.8783 3.87392C15.2565 3.87392 14.7783 3.37174 14.7783 2.77392C14.7783 2.17609 15.2804 1.67392 15.8783 1.67392C16.5 1.67392 16.9783 2.17609 16.9783 2.77392C16.9783 3.37174 16.5 3.87392 15.8783 3.87392Z" fill="#0073C0"/>
</svg>
