<svg width="20" height="17" viewBox="0 0 20 17" fill="none" xmlns="http://www.w3.org/2000/svg">
<path d="M1 9V12.8C1 13.9201 1 14.4802 1.21799 14.908C1.40973 15.2843 1.71569 15.5903 2.09202 15.782C2.51984 16 3.0799 16 4.2 16H15.8C16.9201 16 17.4802 16 17.908 15.782C18.2843 15.5903 18.5903 15.2843 18.782 14.908C19 14.4802 19 13.9201 19 12.8V9M1 9H4.67452C5.16369 9 5.40829 9 5.63846 9.05526C5.84254 9.10425 6.03763 9.18506 6.21657 9.29472C6.4184 9.4184 6.59136 9.59136 6.93726 9.93726L7.06274 10.0627C7.40865 10.4086 7.5816 10.5816 7.78343 10.7053C7.96237 10.8149 8.15746 10.8957 8.36154 10.9447C8.59171 11 8.8363 11 9.32548 11H10.6745C11.1637 11 11.4083 11 11.6385 10.9447C11.8425 10.8957 12.0376 10.8149 12.2166 10.7053C12.4184 10.5816 12.5914 10.4086 12.9373 10.0627L13.0627 9.93726C13.4086 9.59137 13.5816 9.4184 13.7834 9.29472C13.9624 9.18506 14.1575 9.10425 14.3615 9.05526C14.5917 9 14.8363 9 15.3255 9H19M1 9L3.32639 3.83025C3.78752 2.8055 4.0181 2.29312 4.38026 1.91755C4.70041 1.58556 5.09278 1.33186 5.52691 1.17615C6.01802 1 6.57988 1 7.70361 1H12.2964C13.4201 1 13.982 1 14.4731 1.17615C14.9072 1.33186 15.2996 1.58556 15.6197 1.91755C15.9819 2.29312 16.2125 2.8055 16.6736 3.83025L19 9" stroke="#0073C0" stroke-width="2" stroke-linecap="round" stroke-linejoin="round"/>
</svg>
