<svg width="21" height="21" viewBox="0 0 21 21" fill="none" xmlns="http://www.w3.org/2000/svg">
<g clip-path="url(#clip0_418_418)">
<path d="M19.3565 6.41413C19.5391 6.59674 19.7674 6.68804 20.0641 6.68804C20.3152 6.68804 20.5435 6.59674 20.7261 6.41413C20.9087 6.23152 21 6.00326 21 5.75217V0.958696C21 0.707609 20.9087 0.479348 20.7033 0.319565C20.5207 0.0913043 20.3152 0 20.0641 0H15.2707C15.0196 0 14.7913 0.0913044 14.6087 0.273913C14.4033 0.456522 14.312 0.684783 14.312 0.93587C14.312 1.23261 14.4033 1.46087 14.5859 1.64348C14.7685 1.82609 14.9967 1.91739 15.2478 1.91739H17.7359L12.3261 7.35C11.8011 7.05326 11.1848 6.89348 10.5457 6.89348C9.86087 6.89348 9.19891 7.07609 8.65109 7.41848L3.26413 2.0087H5.75217C6.00326 2.0087 6.23152 1.91739 6.41413 1.73478C6.59674 1.55217 6.68804 1.32391 6.68804 1.07283C6.68804 0.798913 6.59674 0.547826 6.41413 0.365217C6.23152 0.182609 6.00326 0.0913044 5.75217 0.0913044H0.958696C0.730435 0.0913044 0.525 0.182609 0.319565 0.388043C0.0913043 0.547826 0 0.776087 0 1.07283V5.82065C0 6.07174 0.0913044 6.3 0.273913 6.48261C0.456522 6.68804 0.684783 6.77935 0.93587 6.77935C1.20978 6.77935 1.46087 6.68804 1.64348 6.50543C1.82609 6.32283 1.91739 6.09457 1.91739 5.84348V3.33261L7.30435 8.76522C7.00761 9.29022 6.825 9.90652 6.825 10.5685C6.825 11.2076 6.98478 11.8239 7.28152 12.3489L1.91739 17.7359V15.2478C1.91739 14.9967 1.82609 14.7685 1.64348 14.5859C1.46087 14.4033 1.23261 14.312 0.93587 14.312C0.684783 14.312 0.456522 14.4033 0.273913 14.5859C0.0913044 14.7685 0 14.9967 0 15.2478V20.0413C0 20.2924 0.0913043 20.5207 0.296739 20.6804C0.479348 20.8859 0.707609 20.9772 0.981522 20.9772H5.72935C5.98044 20.9772 6.2087 20.8859 6.41413 20.7033C6.61957 20.5207 6.71087 20.2924 6.71087 20.0413C6.71087 19.7674 6.61957 19.5163 6.41413 19.3337C6.2087 19.1511 5.98044 19.0598 5.72935 19.0598H3.26413L8.62826 13.6957C9.19891 14.038 9.86087 14.2435 10.5685 14.2435C11.2304 14.2435 11.8239 14.0609 12.3717 13.7641L17.6446 19.037H15.1793C14.9283 19.037 14.7 19.1283 14.5174 19.3109C14.3348 19.4935 14.2435 19.7217 14.2435 20.0185C14.2435 20.2696 14.3348 20.4978 14.5174 20.6804C14.7 20.863 14.9283 20.9543 15.1793 20.9543H19.9272C20.2467 20.9543 20.475 20.863 20.6576 20.6576C20.8859 20.475 21 20.2696 21 20.0185V15.225C21 14.9739 20.9087 14.7457 20.7261 14.563C20.5435 14.3804 20.3152 14.2891 20.0641 14.2891C19.7674 14.2891 19.5391 14.3804 19.3565 14.563C19.1739 14.7457 19.0826 14.9739 19.0826 15.225V17.713L13.7185 12.4402C14.038 11.8924 14.2207 11.2533 14.2207 10.5685C14.2207 9.86087 14.0152 9.19891 13.6728 8.62826L19.0598 3.2413V5.72935C19.0826 6.00326 19.1739 6.23152 19.3565 6.41413ZM8.4913 10.5685C8.4913 9.45 9.40435 8.53696 10.5228 8.53696C11.6413 8.53696 12.5543 9.45 12.5543 10.5685C12.5543 11.687 11.6413 12.6 10.5228 12.6C9.40435 12.6 8.4913 11.7098 8.4913 10.5685Z" fill="#0073C0"/>
</g>
<defs>
<clipPath id="clip0_418_418">
<rect width="21" height="21" fill="white"/>
</clipPath>
</defs>
</svg>
