<svg width="21" height="21" viewBox="0 0 21 21" fill="none" xmlns="http://www.w3.org/2000/svg">
<path d="M18.4891 3.675C18.4891 1.25543 14.4717 0 10.5 0C6.52826 0 2.51086 1.25543 2.51086 3.675C2.51086 3.69783 2.51086 3.72065 2.51086 3.74348V3.7663V17.4391C2.51086 19.7674 6.52826 21 10.5 21C14.4717 21 18.4891 19.7674 18.4891 17.4163V3.7663V3.74348C18.4891 3.69783 18.4891 3.69783 18.4891 3.675ZM16.663 10.5913C16.663 11.0935 14.4946 12.3489 10.5 12.3489C6.50543 12.3489 4.33695 11.1163 4.33695 10.5913V6.09457C5.88913 6.9163 8.19456 7.35 10.5 7.35C12.8054 7.35 15.1109 6.9163 16.663 6.09457V10.5913ZM10.5 1.82609C14.563 1.82609 16.663 3.12717 16.663 3.675C16.663 4.22283 14.563 5.52391 10.5 5.52391C6.43695 5.52391 4.33695 4.22283 4.33695 3.675C4.33695 3.12717 6.43695 1.82609 10.5 1.82609ZM10.5 19.1739C6.50543 19.1739 4.33695 17.9413 4.33695 17.4163V12.9424C5.88913 13.7413 8.19456 14.1522 10.5 14.1522C12.8054 14.1522 15.1109 13.7413 16.663 12.9424V17.4163C16.663 17.9413 14.4946 19.1739 10.5 19.1739ZM14.3804 9.79239V8.67391C14.3804 8.24022 14.7456 7.875 15.1793 7.875C15.613 7.875 15.9783 8.24022 15.9783 8.67391V9.79239C15.9783 10.2261 15.613 10.5913 15.1793 10.5913C14.7456 10.5913 14.3804 10.2489 14.3804 9.79239Z" fill="#0073C0"/>
</svg>
