<svg width="24" height="24" viewBox="0 0 24 24" fill="none" xmlns="http://www.w3.org/2000/svg">
<g clip-path="url(#clip0_418_397)">
<path d="M9.99131 23.8957L1.46088 19.0435C1.20001 18.887 1.04349 18.6261 1.04349 18.3391V8.58262C1.04349 7.95653 1.72175 7.56523 2.26957 7.87827L10.8 12.7304C11.0609 12.887 11.2174 13.1478 11.2174 13.4348V23.1913C11.2174 23.8174 10.5391 24.2087 9.99131 23.8957Z" fill="#0073C0"/>
<path d="M14.0087 23.8957L22.5391 19.0435C22.8 18.887 22.9565 18.6261 22.9565 18.3391V8.58262C22.9565 7.95653 22.2783 7.56523 21.7305 7.87827L13.2 12.7044C12.9391 12.8609 12.7826 13.1218 12.7826 13.4087V23.1652C12.7826 23.8174 13.4609 24.2087 14.0087 23.8957Z" fill="#0073C0"/>
<path d="M20.8174 5.06088L12.3391 0.10436C12.0783 -0.0521614 11.7652 -0.0521614 11.5043 0.10436L3.07826 4.98262C2.53043 5.29566 2.53043 6.07827 3.07826 6.39132L11.5565 11.3478C11.8174 11.5044 12.1304 11.5044 12.3913 11.3478L20.8174 6.46958C21.3652 6.18262 21.3652 5.37393 20.8174 5.06088Z" fill="#0073C0"/>
</g>
<defs>
<clipPath id="clip0_418_397">
<rect width="24" height="24" fill="white"/>
</clipPath>
</defs>
</svg>
