<svg width="22" height="22" viewBox="0 0 22 22" fill="none" xmlns="http://www.w3.org/2000/svg">
<g clip-path="url(#clip0_418_415)">
<path d="M19.8478 16.8826V11.7174C19.8478 10.2587 18.8196 9.08696 17.3609 9.08696H11.9565V5.14131V5.1174C12.8891 4.73479 13.5348 3.82609 13.5348 2.77392C13.5348 1.38696 12.4109 0.239136 11 0.239136C9.58912 0.239136 8.46521 1.38696 8.46521 2.77392C8.46521 3.82609 9.13478 4.73479 10.0435 5.1174V5.14131V9.08696H4.63912C3.18043 9.08696 2.15217 10.2826 2.15217 11.7174V16.8826C1.19565 17.2652 0.502167 18.1739 0.502167 19.2261C0.502167 20.613 1.60217 21.7609 2.98912 21.7609C4.37608 21.7609 5.57173 20.613 5.57173 19.2261C5.57173 18.1739 4.75869 17.2652 4.0413 16.8826V11.7174C4.0413 11.3109 4.2326 11 4.61521 11H10.0435V16.8826C9.08695 17.2652 8.46521 18.1739 8.46521 19.2261C8.46521 20.613 9.58912 21.7609 11 21.7609C12.4109 21.7609 13.5348 20.613 13.5348 19.2261C13.5348 18.1739 12.913 17.2652 11.9565 16.8826V11H17.3609C17.7674 11 17.9348 11.3348 17.9348 11.7174V16.8826C17.2174 17.2652 16.4283 18.1739 16.4283 19.2261C16.4283 20.613 17.6 21.7609 19.0109 21.7609C20.4217 21.7609 21.4978 20.613 21.4978 19.2261C21.4978 18.1739 20.8043 17.2652 19.8478 16.8826ZM11 1.67392C11.5978 1.67392 12.1 2.17609 12.1 2.77392C12.1 3.37174 11.5978 3.87392 11 3.87392C10.4022 3.87392 9.89999 3.37174 9.89999 2.77392C9.89999 2.17609 10.4022 1.67392 11 1.67392ZM2.96521 20.3261C2.36738 20.3261 1.86521 19.8239 1.86521 19.2261C1.86521 18.6283 2.36738 18.1261 2.96521 18.1261C3.56304 18.1261 4.06521 18.6283 4.06521 19.2261C4.06521 19.8239 3.56304 20.3261 2.96521 20.3261ZM11 20.3261C10.4022 20.3261 9.89999 19.8239 9.89999 19.2261C9.89999 18.6283 10.4022 18.1261 11 18.1261C11.5978 18.1261 12.1 18.6283 12.1 19.2261C12.1 19.8239 11.5978 20.3261 11 20.3261ZM19.0348 20.3261C18.4369 20.3261 17.9348 19.8239 17.9348 19.2261C17.9348 18.6283 18.4369 18.1261 19.0348 18.1261C19.6326 18.1261 20.1348 18.6283 20.1348 19.2261C20.1348 19.8239 19.6326 20.3261 19.0348 20.3261Z" fill="#0073C0"/>
</g>
<defs>
<clipPath id="clip0_418_415">
<rect width="22" height="22" fill="white"/>
</clipPath>
</defs>
</svg>
