<svg width="21" height="21" viewBox="0 0 21 21" fill="none" xmlns="http://www.w3.org/2000/svg">
<g clip-path="url(#clip0_418_439)">
<path d="M19.9043 20.863H16.5489C16.0467 20.863 15.6359 20.4522 15.6359 19.95V18.8543H14.5174C14.0152 18.8543 13.6043 18.4435 13.6043 17.9413V16.8456H12.5087C12.0065 16.8456 11.5956 16.4348 11.5956 15.9326V14.8141C11.0478 14.8141 10.5228 14.8141 9.99782 14.8141C9.65543 14.8141 9.31304 14.6543 9.06195 14.4261C8.85652 14.2435 8.67391 14.038 8.46848 13.8326C8.37717 13.7413 8.28587 13.65 8.19456 13.5587C7.23587 13.7185 6.27717 13.6728 5.29565 13.3989C1.87174 12.463 -0.205436 9.44999 0.228259 6.0489C0.639129 2.8989 3.21848 0.479333 6.36848 0.251073C8.51413 0.114116 10.4772 0.890203 11.8467 2.48803C13.2163 4.06303 13.8326 6.25433 13.4902 8.2402L20.3837 15.0652C20.6804 15.3619 20.8402 15.7272 20.8174 16.138C20.8174 17.0282 20.8174 17.9185 20.8174 18.8087V19.95C20.8174 20.4522 20.4065 20.863 19.9043 20.863ZM17.4391 19.0369H18.9913V18.8087C18.9913 17.9641 18.9913 17.0967 18.9913 16.2522L12.0522 9.35868C11.687 9.01629 11.5728 8.58259 11.687 8.10325C12.0065 6.59673 11.55 4.90759 10.4772 3.69781C9.47282 2.53368 8.05761 1.9402 6.50543 2.05433C4.22282 2.21412 2.35109 3.99455 2.05435 6.27716C1.73478 8.7652 3.26413 10.9793 5.79782 11.6641C6.61956 11.8924 7.39565 11.9152 8.17174 11.7326C8.55978 11.6413 8.97065 11.7782 9.24456 12.0522C9.42717 12.2348 9.60978 12.3946 9.76956 12.5772C9.90652 12.7141 10.0663 12.8739 10.2033 13.0109C10.7511 13.0109 11.3217 13.0109 11.8924 13.0109H12.5087C13.0109 13.0109 13.4217 13.4217 13.4217 13.9239V15.0424H14.5174C15.0196 15.0424 15.4304 15.4532 15.4304 15.9554V17.0511H16.5489C17.0511 17.0511 17.462 17.4619 17.462 17.9641V19.0369H17.4391Z" fill="#0073C0"/>
<path d="M5.79783 7.25868C6.59674 7.25868 7.23587 6.61955 7.23587 5.82063C7.23587 4.9989 6.59674 4.33694 5.775 4.35977C4.97609 4.35977 4.33696 4.9989 4.33696 5.79781C4.33696 6.59672 4.97609 7.23585 5.79783 7.25868Z" fill="#0073C0"/>
</g>
<defs>
<clipPath id="clip0_418_439">
<rect width="21" height="21" fill="white"/>
</clipPath>
</defs>
</svg>
