<svg width="22" height="16" viewBox="0 0 22 16" fill="none" xmlns="http://www.w3.org/2000/svg">
<path d="M16.7522 15.3043C12.187 15.3043 4.67718 15.2815 4.54022 15.2815C2.55435 15.2815 0.865223 13.7749 0.545658 11.6978C0.294571 10.0771 0.979353 7.90864 3.53588 6.76734C2.9424 4.23364 4.38044 2.08799 6.29783 1.19777C7.50761 0.627123 8.83153 0.558644 10.0641 0.969514C11.137 1.33473 12.0957 2.06517 12.8261 3.09234C13.9674 2.45321 15.3141 2.40756 16.4326 3.02386C17.3913 3.57169 18.2815 4.71299 18.1902 6.44777C20.6326 7.20104 21.6141 9.32386 21.5 11.1499C21.3402 13.1586 19.8109 15.3043 16.7522 15.3043ZM8.46631 2.52169C7.96414 2.52169 7.46196 2.63582 7.05109 2.84125C5.72718 3.45756 4.70001 5.00973 5.49892 6.97277C5.59022 7.20104 5.59022 7.47495 5.47609 7.70321C5.36196 7.93147 5.15653 8.11408 4.92827 8.18256C2.21196 9.02712 2.28044 10.876 2.34892 11.4239C2.5087 12.4282 3.30761 13.4554 4.54022 13.4554C4.6087 13.4554 12.1641 13.4782 16.7522 13.4782C18.6467 13.4782 19.5826 12.2456 19.6739 11.013C19.7652 9.75756 18.9891 8.34234 17.0261 8.06843C16.775 8.02277 16.5467 7.88582 16.4098 7.68038C16.2728 7.47495 16.2272 7.20104 16.2728 6.94995C16.5239 5.8543 16.25 5.00973 15.5424 4.59886C14.9489 4.25647 14.0131 4.2793 13.2141 5.05538C13.0087 5.26082 12.712 5.35212 12.438 5.30647C12.1413 5.26082 11.913 5.07821 11.7761 4.82712C10.863 3.11517 9.60762 2.52169 8.46631 2.52169Z" fill="white"/>
</svg>
