<svg width="24" height="24" viewBox="0 0 24 24" fill="none" xmlns="http://www.w3.org/2000/svg">
<g clip-path="url(#clip0_418_427)">
<path d="M18.5739 20.3478C13.3565 20.3478 4.77391 20.3217 4.61739 20.3217C2.34782 20.3217 0.417387 18.6 0.0521693 16.2261C-0.234787 14.3739 0.547822 11.8956 3.46956 10.5913C2.7913 7.69565 4.43478 5.24348 6.62608 4.22609C8.00869 3.57391 9.52174 3.49565 10.9304 3.96522C12.1565 4.38261 13.2522 5.21739 14.087 6.3913C15.3913 5.66087 16.9304 5.60869 18.2087 6.31304C19.3043 6.93913 20.3217 8.24348 20.2174 10.2261C23.0087 11.087 24.1304 13.513 24 15.6C23.8174 17.8957 22.0696 20.3478 18.5739 20.3478ZM9.10434 5.73913C8.53043 5.73913 7.95652 5.86956 7.48695 6.10435C5.97391 6.80869 4.8 8.58261 5.71304 10.8261C5.81739 11.087 5.81739 11.4 5.68695 11.6609C5.55652 11.9217 5.32173 12.1304 5.06086 12.2087C1.95652 13.1739 2.03478 15.287 2.11304 15.913C2.29565 17.0609 3.20869 18.2348 4.61739 18.2348C4.69565 18.2348 13.3304 18.2609 18.5739 18.2609C20.7391 18.2609 21.8087 16.8522 21.913 15.4435C22.0174 14.0087 21.1304 12.3913 18.887 12.0783C18.6 12.0261 18.3391 11.8696 18.1826 11.6348C18.0261 11.4 17.9739 11.087 18.0261 10.8C18.313 9.54782 18 8.58261 17.1913 8.11304C16.513 7.72174 15.4435 7.74782 14.5304 8.63478C14.2956 8.86956 13.9565 8.97391 13.6435 8.92174C13.3043 8.86956 13.0435 8.66087 12.887 8.37391C11.8435 6.41739 10.4087 5.73913 9.10434 5.73913Z" fill="#0073C0"/>
</g>
<defs>
<clipPath id="clip0_418_427">
<rect width="24" height="24" fill="white"/>
</clipPath>
</defs>
</svg>
