<svg width="24" height="24" viewBox="0 0 24 24" fill="none" xmlns="http://www.w3.org/2000/svg">
<path d="M6.60001 9.8H5.85001H6.60001ZM19.3017 16.9075L18.8672 16.2962L19.3017 16.9075ZM18.4223 14.3279L17.7602 14.6803L17.7602 14.6803L18.4223 14.3279ZM19.5079 16.5642L18.7641 16.4679L19.5079 16.5642ZM5.57774 14.3279L6.23979 14.6803L6.23979 14.6803L5.57774 14.3279ZM4.49211 16.5642L5.2359 16.4679L4.49211 16.5642ZM4.69827 16.9075L4.26373 17.5188L4.26373 17.5188L4.69827 16.9075ZM9.85031 19.4377C9.53976 19.1636 9.0658 19.1931 8.7917 19.5037C8.51761 19.8143 8.54716 20.2882 8.85771 20.5623L9.85031 19.4377ZM15.1503 20.5623C15.4609 20.2882 15.4904 19.8143 15.2163 19.5037C14.9422 19.1931 14.4683 19.1636 14.1577 19.4377L15.1503 20.5623ZM12.75 3C12.75 2.58579 12.4142 2.25 12 2.25C11.5858 2.25 11.25 2.58579 11.25 3H12.75ZM18.15 9.8C18.15 8.29763 17.4778 6.87748 16.3167 5.84533L15.3201 6.96644C16.1843 7.73464 16.65 8.75629 16.65 9.8H18.15ZM16.3167 5.84533C15.1584 4.81574 13.6044 4.25 12 4.25V5.75C13.2599 5.75 14.453 6.19569 15.3201 6.96644L16.3167 5.84533ZM12 4.25C10.3956 4.25 8.84165 4.81574 7.68336 5.84533L8.6799 6.96644C9.547 6.19569 10.7401 5.75 12 5.75V4.25ZM7.68336 5.84533C6.52219 6.87748 5.85001 8.29763 5.85001 9.8H7.35001C7.35001 8.75629 7.81568 7.73464 8.6799 6.96644L7.68336 5.84533ZM5.85001 9.8C5.85001 11.6512 5.43281 13.004 4.91569 13.9755L6.23979 14.6803C6.87703 13.4832 7.35001 11.887 7.35001 9.8H5.85001ZM6.76978 17.75H17.2302V16.25H6.76978V17.75ZM19.0843 13.9755C18.5672 13.004 18.15 11.6512 18.15 9.8H16.65C16.65 11.887 17.123 13.4832 17.7602 14.6803L19.0843 13.9755ZM17.2302 17.75C17.8712 17.75 18.3723 17.7501 18.7281 17.738C18.9048 17.732 19.0671 17.7224 19.2027 17.7046C19.2705 17.6957 19.3476 17.6828 19.4246 17.662C19.4909 17.644 19.6142 17.6056 19.7363 17.5188L18.8672 16.2962C18.9568 16.2326 19.0314 16.2144 19.0324 16.2141C19.044 16.211 19.0391 16.2132 19.0077 16.2174C18.9449 16.2256 18.8401 16.2333 18.6771 16.2389C18.3532 16.2499 17.8836 16.25 17.2302 16.25V17.75ZM17.7602 14.6803C18.1314 15.3776 18.4017 15.8856 18.5776 16.2398C18.6661 16.4181 18.7221 16.5404 18.7535 16.6196C18.7694 16.6596 18.7728 16.6732 18.7715 16.6681C18.7707 16.6649 18.7663 16.6479 18.7629 16.6208C18.7599 16.5965 18.7546 16.5411 18.7641 16.4679L20.2517 16.6606C20.2733 16.4936 20.2389 16.3511 20.2233 16.2909C20.2028 16.2122 20.175 16.1349 20.1477 16.0661C20.0927 15.9276 20.0143 15.7605 19.9211 15.5727C19.7333 15.1946 19.4506 14.6636 19.0843 13.9755L17.7602 14.6803ZM19.7363 17.5188C19.8221 17.4578 19.9804 17.3429 20.0957 17.1508C20.2111 16.9587 20.2382 16.765 20.2517 16.6606L18.7641 16.4679C18.7596 16.5026 18.7582 16.5028 18.762 16.4884C18.7673 16.4684 18.7807 16.4269 18.8098 16.3785C18.8388 16.3302 18.8691 16.2988 18.8843 16.2847C18.8952 16.2746 18.8957 16.276 18.8672 16.2962L19.7363 17.5188ZM4.91569 13.9755C4.54944 14.6636 4.26666 15.1946 4.07895 15.5727C3.98572 15.7605 3.9073 15.9276 3.8523 16.0661C3.825 16.1349 3.79717 16.2122 3.77673 16.2909C3.7611 16.3511 3.7267 16.4936 3.74833 16.6606L5.2359 16.4679C5.24538 16.5411 5.24011 16.5965 5.23709 16.6208C5.23372 16.6479 5.22935 16.6649 5.22853 16.6681C5.2272 16.6732 5.23058 16.6596 5.24648 16.6196C5.2779 16.5404 5.3339 16.4181 5.42246 16.2398C5.59833 15.8856 5.86863 15.3776 6.23979 14.6803L4.91569 13.9755ZM6.76978 16.25C6.11642 16.25 5.64681 16.2499 5.32295 16.2389C5.15989 16.2333 5.0551 16.2256 4.99232 16.2174C4.96095 16.2132 4.956 16.211 4.96764 16.2141C4.96865 16.2144 5.04324 16.2326 5.13282 16.2962L4.26373 17.5188C4.38583 17.6056 4.5091 17.644 4.57546 17.662C4.65244 17.6828 4.7295 17.6957 4.79732 17.7046C4.93291 17.7224 5.09519 17.732 5.27196 17.738C5.62776 17.7501 6.12886 17.75 6.76978 17.75V16.25ZM3.74833 16.6606C3.76185 16.765 3.78895 16.9587 3.90429 17.1508C4.01964 17.3429 4.17794 17.4578 4.26373 17.5188L5.13282 16.2962C5.10432 16.276 5.1048 16.2746 5.11572 16.2847C5.13087 16.2988 5.16116 16.3302 5.19022 16.3785C5.21928 16.4269 5.23273 16.4684 5.23803 16.4884C5.24185 16.5028 5.24039 16.5026 5.2359 16.4679L3.74833 16.6606ZM12.004 20.2516C11.1777 20.2516 10.4248 19.9447 9.85031 19.4377L8.85771 20.5623C9.69571 21.3019 10.7983 21.7516 12.004 21.7516V20.2516ZM14.1577 19.4377C13.5832 19.9447 12.8304 20.2516 12.004 20.2516V21.7516C13.2098 21.7516 14.3123 21.3019 15.1503 20.5623L14.1577 19.4377ZM11.25 3V5H12.75V3H11.25Z" fill="#0073C0"/>
</svg>
