<svg width="28" height="21" viewBox="0 0 28 21" fill="none" xmlns="http://www.w3.org/2000/svg">
<g clip-path="url(#clip0_418_434)">
<path d="M2.10753 19.3692C1.85663 19.6034 1.56392 19.7288 1.22103 19.7288C0.878136 19.7288 0.593787 19.6117 0.351254 19.3692C0.108722 19.1267 0 18.8423 0 18.4994V10.9558C0 10.5962 0.117085 10.2951 0.359618 10.0526C0.602151 9.81005 0.894863 9.70132 1.25448 9.70132C1.59737 9.70132 1.88172 9.81841 2.12425 10.0609C2.36679 10.3035 2.48387 10.5962 2.48387 10.9642V18.4994C2.47551 18.8423 2.35842 19.1267 2.10753 19.3692Z" fill="#0073C0"/>
<path d="M15.7479 5.05974C14.7276 5.05974 13.8662 5.41935 13.1637 6.13023C12.6284 6.67384 12.2939 7.30944 12.1685 8.02867C12.5783 8.10394 13.0131 8.18757 13.4731 8.28793C13.5484 7.82796 13.7658 7.41816 14.1171 7.06691C14.5687 6.61529 15.1123 6.38949 15.7479 6.38949C16.3835 6.38949 16.9271 6.61529 17.3787 7.06691C17.8303 7.51852 18.0561 8.06213 18.0561 8.69773C18.0561 8.9319 18.0143 9.14098 17.9558 9.35006C18.4659 9.48387 18.8925 9.60096 19.227 9.70131C19.319 9.38351 19.3775 9.04898 19.3775 8.69773C19.3775 7.67742 19.0179 6.81601 18.307 6.1135C17.6045 5.41099 16.7431 5.05974 15.7479 5.05974ZM24.4289 7.99522C24.4205 7.89486 24.4038 7.80287 24.3955 7.7276C24.3871 7.65233 24.3787 7.58542 24.3787 7.54361V7.43489C24.3369 7.092 24.1446 6.89964 23.8017 6.85783L22.4803 6.65711C22.2963 6.1135 22.1374 5.72043 22.0036 5.46953L22.8148 4.38232C22.9988 4.08961 22.9988 3.81362 22.8148 3.57109L22.681 3.42891C22.6141 3.33692 22.5137 3.21147 22.3716 3.05257C22.2377 2.89367 22.1039 2.74313 21.9618 2.60932L21.8949 2.54241C21.761 2.4086 21.6105 2.27479 21.4516 2.13262C21.2927 1.99881 21.1673 1.89845 21.0753 1.82318L20.9415 1.68937C20.6738 1.48865 20.3978 1.48865 20.1302 1.68937L19.0765 2.50896C18.7168 2.30824 18.3154 2.13262 17.8889 1.99881L17.6882 0.643967C17.6464 0.301075 17.454 0.108722 17.1111 0.0669056H17.0442C17.0024 0.0669056 16.9271 0.0585424 16.8435 0.0501792C16.7515 0.041816 16.6595 0.0250896 16.5759 0.0167264C16.4755 0.0083632 16.3584 0 16.2246 0H15.7479C14.9785 0 14.5603 0.0334528 14.4934 0.100358C14.1505 0.142174 13.9582 0.326165 13.9164 0.643967L13.7156 1.97372C13.2891 2.10753 12.8877 2.28315 12.5281 2.48387L11.4409 1.63082C11.1481 1.44683 10.8722 1.44683 10.6296 1.63082L10.4958 1.76464C10.4038 1.83154 10.2784 1.9319 10.1195 2.07407C9.96057 2.20789 9.81003 2.3417 9.67622 2.48387L9.60932 2.55078C9.4755 2.68459 9.34169 2.83513 9.19952 2.99403C9.06571 3.15293 8.96535 3.27838 8.89008 3.37037L8.75627 3.50418C8.55555 3.7718 8.55555 4.04779 8.75627 4.31541L9.5675 5.36918C9.36678 5.72879 9.19116 6.13023 9.05734 6.55675L7.70251 6.75747C7.35961 6.80765 7.16726 7 7.12545 7.33453V7.40143C7.12545 7.44325 7.11708 7.51852 7.10872 7.60215C7.09199 7.69415 7.08363 7.78614 7.07527 7.87814C7.0669 7.92832 7.0669 8.00358 7.0669 8.06213C8.31302 7.82796 9.43369 7.77778 9.93548 7.76941C10.0944 7.67742 10.2031 7.53525 10.2449 7.33453C10.3787 6.81601 10.6045 6.28076 10.9223 5.73716L10.9558 5.7037C11.0896 5.41099 11.0812 5.15173 10.9223 4.92593L10.1446 3.93907C10.1864 3.89725 10.2616 3.82198 10.3453 3.72162C10.4373 3.62127 10.5042 3.546 10.546 3.50418L10.6213 3.42891C10.822 3.2282 10.9725 3.08602 11.0645 3.01912L12.0514 3.76344C12.1434 3.85544 12.2354 3.89725 12.319 3.89725C12.5197 3.93907 12.6953 3.92234 12.8291 3.83035C13.3309 3.51254 13.8578 3.28674 14.4265 3.15293C14.7694 3.11111 14.9618 2.92712 15.0036 2.60932L15.1708 1.32139C15.2879 1.2963 15.4803 1.28793 15.7479 1.28793H15.8148C16.0824 1.28793 16.2748 1.2963 16.3919 1.32139L16.5591 2.57587C16.626 2.89367 16.81 3.08602 17.1027 3.15293C17.6213 3.28674 18.1565 3.51254 18.7001 3.83035C18.951 4.03106 19.2103 4.03106 19.4779 3.83035L20.4982 3.08602C20.5902 3.15293 20.724 3.27838 20.908 3.46237L21.0084 3.56272C21.0502 3.60454 21.1254 3.67981 21.2091 3.78017C21.2927 3.88053 21.3596 3.94743 21.3763 3.96416L20.632 4.98447C20.4731 5.16846 20.4397 5.37754 20.5317 5.62844C20.5317 5.67025 20.5567 5.72043 20.5986 5.76225C20.9164 6.30585 21.1422 6.85783 21.276 7.42652C21.3429 7.71924 21.5269 7.8865 21.8196 7.93668L23.0741 8.10394V9.32497L21.8196 9.49223C21.5018 9.55914 21.3094 9.75149 21.2425 10.0693C21.184 10.2951 21.1004 10.5293 21.0084 10.7551C21.2593 11.0812 21.4851 11.5078 21.6356 12.0765C21.761 12.0096 21.8698 11.9594 21.9869 11.9008C22.1792 11.5078 22.3297 11.1398 22.4301 10.8136L23.7849 10.6464C24.1278 10.5795 24.3202 10.3871 24.362 10.0693V9.96894C24.362 9.92712 24.3704 9.86022 24.3787 9.78495C24.3871 9.70968 24.4038 9.61768 24.4122 9.51732C24.4205 9.41697 24.4289 9.29988 24.4289 9.17443V8.33811C24.4456 8.21266 24.4373 8.10394 24.4289 7.99522Z" fill="#0073C0"/>
<path d="M13.0633 21C9.79331 21 4.62485 19.3859 4.13142 18.7838C3.76344 18.3321 3.62963 17.6129 3.62963 11.7503L3.66308 11.5245C4.33214 9.44206 9.73477 9.19953 10.3118 9.24134C12.4277 9.38352 18.859 11.0645 19.3608 11.2652C19.8208 11.4492 20.1302 11.951 20.2975 12.7455C20.3979 13.239 20.4982 14.1255 20.0633 14.5687C19.779 14.8531 19.7539 14.8781 15.8566 14.9701C15.7479 14.9701 15.6392 14.9785 15.5221 14.9785C17.0777 15.221 18.4994 15.3967 18.9343 15.3548C19.135 15.2461 19.5364 15.012 19.963 14.7527C22.3381 13.3309 23.6846 12.6117 24.4373 12.6117C25.7336 12.6117 27.0215 14.0167 27.1135 14.8614C27.172 15.4217 27.0299 15.7814 22.7145 19.0263C22.4134 19.2521 22.1792 19.4361 22.037 19.5448C21.3931 20.055 19.963 20.2306 17.4958 20.4982C16.3919 20.6153 15.2545 20.7407 14.1673 20.9164C13.8327 20.9749 13.4648 21 13.0633 21ZM5.27718 17.8053C6.28077 18.2569 11.307 19.8961 13.9331 19.4695C15.0621 19.2855 16.2664 19.1517 17.3369 19.043C18.7838 18.8841 20.7742 18.6667 21.1254 18.3907C21.2676 18.282 21.5185 18.0896 21.828 17.8638C22.6225 17.2617 24.8973 15.5472 25.5579 14.8698C25.3489 14.5687 24.8303 14.092 24.4289 14.092C23.8937 14.1255 21.6607 15.4552 20.7073 16.0239C20.1386 16.3668 19.7288 16.6093 19.4946 16.718C18.5078 17.1864 11.0645 15.7145 10.2031 15.3632C9.71804 15.1625 9.60932 14.7527 9.66786 14.4683C9.81004 13.6906 10.1027 13.6487 15.8148 13.5149C16.9188 13.4898 18.2318 13.4564 18.9008 13.4146C18.8757 13.1386 18.8005 12.779 18.7085 12.6201C17.7969 12.3274 12.0346 10.8471 10.2115 10.73C8.681 10.6296 5.51135 11.3071 5.09319 11.9259C5.09319 13.4564 5.10155 16.9857 5.27718 17.8053Z" fill="#0073C0"/>
</g>
<defs>
<clipPath id="clip0_418_434">
<rect width="27.1135" height="21" fill="white"/>
</clipPath>
</defs>
</svg>
