<svg width="154" height="18" viewBox="0 0 154 18" fill="none" xmlns="http://www.w3.org/2000/svg">
<g clip-path="url(#clip0_418_740)">
<path d="M17.0414 4.27711C16.5051 4.27573 15.9708 4.34207 15.4511 4.47455C14.9576 3.34516 14.0901 2.42021 12.9947 1.85531C11.8993 1.29041 10.6427 1.12003 9.43641 1.37283C8.2301 1.62564 7.14768 2.2862 6.37123 3.24339C5.59479 4.20058 5.17171 5.39599 5.17318 6.6285V6.65722C3.84045 6.83558 2.62344 7.50837 1.76358 8.54211C0.903714 9.57586 0.463815 10.895 0.531142 12.238C0.59847 13.5809 1.1681 14.8495 2.12705 15.792C3.08599 16.7346 4.36419 17.2823 5.70808 17.3264H5.77269L17.3681 17.2977C19.0564 17.2012 20.6409 16.4517 21.7865 15.2079C22.9321 13.964 23.5489 12.3233 23.5065 10.6328C23.4641 8.94231 22.7657 7.33461 21.5591 6.14979C20.3526 4.96497 18.7324 4.29597 17.0414 4.28429V4.27711ZM17.0414 16.3392L5.77269 16.3643C5.19519 16.3693 4.62236 16.2604 4.08692 16.044C3.55148 15.8276 3.06391 15.5078 2.65205 15.103C1.82026 14.2853 1.34736 13.1707 1.33736 12.0044C1.32736 10.8381 1.78109 9.71554 2.59874 8.88375C3.41639 8.05196 4.53098 7.57905 5.69731 7.56906H6.21784L6.16399 7.05211C6.14929 6.91019 6.1421 6.76759 6.14245 6.62491C6.13725 5.57804 6.50538 4.56359 7.18075 3.76369C7.85613 2.96379 8.79451 2.43082 9.82744 2.26047C10.8604 2.09011 11.9202 2.29353 12.8167 2.8342C13.7131 3.37487 14.3875 4.21738 14.7188 5.21048L14.8731 5.66281L15.3111 5.50845C16.0749 5.25627 16.8843 5.17301 17.6835 5.26443C18.4826 5.35586 19.2524 5.61978 19.9395 6.03795C20.6266 6.45611 21.2146 7.01854 21.663 7.68633C22.1114 8.35413 22.4093 9.11135 22.5363 9.90561C22.6632 10.6999 22.6161 11.5122 22.3982 12.2865C22.1803 13.0608 21.7968 13.7785 21.2742 14.39C20.7517 15.0015 20.1025 15.4921 19.3717 15.8281C18.6409 16.164 17.8458 16.3372 17.0414 16.3356V16.3392Z" fill="#0073C0"/>
<path d="M5.70805 17.7392C4.27147 17.7207 2.89341 17.1672 1.8432 16.1868C0.792988 15.2064 0.14611 13.8696 0.0289892 12.4377C-0.0881312 11.0058 0.332924 9.58165 1.20986 8.44364C2.08681 7.30562 3.3566 6.53551 4.77109 6.28382C4.84317 5.01676 5.3308 3.80876 6.15854 2.84673C6.98628 1.8847 8.10798 1.22226 9.3501 0.961897C10.5922 0.701538 11.8855 0.857773 13.0299 1.40643C14.1743 1.95509 15.106 2.86558 15.6808 3.99705C16.5992 3.81105 17.5458 3.81337 18.4633 4.00388C19.3808 4.19439 20.25 4.56911 21.0184 5.10537C21.7869 5.64162 22.4385 6.32825 22.9338 7.12368C23.4291 7.9191 23.7578 8.80678 23.9001 9.73296C24.0423 10.6591 23.9951 11.6046 23.7613 12.512C23.5275 13.4194 23.112 14.2699 22.5399 15.012C21.9679 15.7542 21.2511 16.3725 20.4331 16.8295C19.6151 17.2866 18.7128 17.5728 17.7809 17.671V17.7141H17.3717L5.70805 17.7392ZM10.5329 1.6672C9.22148 1.66909 7.96432 2.19089 7.03701 3.11821C6.10969 4.04552 5.5879 5.30268 5.586 6.61409V6.97308L5.22701 7.04129C3.97736 7.18385 2.82894 7.79705 2.01531 8.75618C1.20167 9.71531 0.783929 10.9483 0.847035 12.2045C0.91014 13.4607 1.44936 14.6456 2.35502 15.5184C3.26068 16.3912 4.46477 16.8862 5.72241 16.9028H5.77985L17.3573 16.8669C18.2121 16.83 19.0495 16.6138 19.8153 16.2323C20.5811 15.8508 21.2581 15.3126 21.8024 14.6526C22.3467 13.9926 22.7462 13.2254 22.9749 12.401C23.2036 11.5766 23.2564 10.7134 23.1299 9.86723C23.0034 9.0211 22.7004 8.21102 22.2405 7.48957C21.7807 6.76811 21.1743 6.1514 20.4607 5.67945C19.7471 5.2075 18.9423 4.89085 18.0984 4.75006C17.2546 4.60927 16.3905 4.64748 15.5624 4.86222L15.2034 4.94837L15.0634 4.62528C14.6774 3.74523 14.0434 2.99674 13.2388 2.47137C12.4341 1.94601 11.4938 1.66655 10.5329 1.6672V1.6672ZM5.77267 16.7771C5.14095 16.7835 4.51416 16.6654 3.92809 16.4295C3.34202 16.1936 2.80815 15.8446 2.35695 15.4024C1.44572 14.5094 0.92658 13.2909 0.913726 12.0151C0.900873 10.7393 1.39536 9.51062 2.28841 8.5994C3.18147 7.68817 4.39993 7.16902 5.67574 7.15617H5.74395V7.08796C5.72605 6.93185 5.71766 6.77481 5.71882 6.61768C5.71763 5.4753 6.12272 4.36971 6.8617 3.49854C7.60068 2.62736 8.62539 2.04736 9.75267 1.86222C10.88 1.67707 12.0363 1.89884 13.0152 2.48788C13.994 3.07693 14.7314 3.99486 15.0957 5.07761L15.1172 5.14223L15.1818 5.12069C15.7817 4.92211 16.4096 4.8215 17.0414 4.82273C18.5973 4.80717 20.0977 5.40043 21.2222 6.47587C22.3468 7.55131 23.0064 9.02372 23.0603 10.5788C23.1142 12.1339 22.558 13.6484 21.5106 14.7991C20.4632 15.9498 19.0075 16.6455 17.4542 16.7376V16.7376L5.77267 16.7771ZM10.5329 2.63647C9.47755 2.63836 8.46581 3.05769 7.71856 3.80292C6.97131 4.54816 6.54924 5.55876 6.5445 6.61409C6.54411 6.74244 6.55131 6.87071 6.56604 6.99821L6.66297 7.9639L5.69369 7.98185C4.63686 7.99089 3.6269 8.41939 2.886 9.17308C2.1451 9.92678 1.73395 10.9439 1.743 12.0008C1.75204 13.0576 2.18054 14.0675 2.93423 14.8084C3.68792 15.5493 4.70507 15.9605 5.7619 15.9514L17.0414 15.9191C17.7277 15.9373 18.4107 15.8178 19.05 15.5677C19.6894 15.3176 20.2721 14.9419 20.764 14.463C21.2558 13.984 21.6467 13.4113 21.9136 12.7788C22.1805 12.1463 22.318 11.4667 22.318 10.7802C22.318 10.0937 22.1805 9.41409 21.9136 8.78157C21.6467 8.14905 21.2558 7.5764 20.764 7.09741C20.2721 6.61842 19.6894 6.24279 19.05 5.99269C18.4107 5.74259 17.7277 5.62309 17.0414 5.64123C16.4959 5.64192 15.9541 5.7304 15.4367 5.90329L14.5931 6.1833L14.3095 5.34326C14.0431 4.5532 13.5352 3.86682 12.8575 3.3811C12.1798 2.89539 11.3667 2.63491 10.5329 2.63647V2.63647Z" fill="#0073C0"/>
<path d="M21.6005 10.1251C23.1192 10.1251 24.3503 8.89395 24.3503 7.37524C24.3503 5.85653 23.1192 4.62537 21.6005 4.62537C20.0817 4.62537 18.8506 5.85653 18.8506 7.37524C18.8506 8.89395 20.0817 10.1251 21.6005 10.1251Z" fill="#0073C0"/>
<path d="M21.6006 10.947C20.8898 10.947 20.195 10.736 19.6043 10.3408C19.0136 9.94549 18.5535 9.38376 18.2823 8.72675C18.0111 8.06973 17.9411 7.347 18.081 6.65014C18.221 5.95328 18.5647 5.31366 19.0686 4.81232C19.5724 4.31098 20.2138 3.9705 20.9113 3.83402C21.6089 3.69753 22.3312 3.77119 22.9869 4.04566C23.6425 4.32013 24.202 4.78305 24.5943 5.37576C24.9866 5.96847 25.1941 6.6643 25.1905 7.37507C25.1858 8.32406 24.8055 9.23257 24.1327 9.90193C23.46 10.5713 22.5496 10.947 21.6006 10.947ZM21.6006 5.45088C21.2199 5.45017 20.8475 5.56242 20.5306 5.77342C20.2137 5.98442 19.9665 6.28469 19.8203 6.63623C19.6741 6.98776 19.6355 7.37477 19.7094 7.74826C19.7832 8.12175 19.9662 8.46495 20.2351 8.73441C20.5041 9.00387 20.847 9.18749 21.2203 9.26203C21.5937 9.33656 21.9807 9.29867 22.3325 9.15314C22.6844 9.00761 22.9851 8.76098 23.1967 8.44447C23.4083 8.12796 23.5212 7.7558 23.5212 7.37507C23.5212 6.86537 23.319 6.37649 22.9589 6.01573C22.5988 5.65498 22.1103 5.45183 21.6006 5.45088V5.45088Z" fill="#0073C0"/>
<path d="M46.5292 6.61047H44.7773V15.4919H46.5292V6.61047Z" fill="#0073C0"/>
<path d="M76.4436 11.5754L69.4684 11.6615C69.5121 12.013 69.6247 12.3524 69.7996 12.6604C69.9745 12.9684 70.2085 13.2389 70.488 13.4565C71.0958 13.922 71.8483 14.1584 72.6132 14.1242C73.0785 14.1354 73.5406 14.0448 73.9672 13.8588C74.3938 13.6728 74.7747 13.3958 75.0831 13.0472L75.9554 14.0416C75.5689 14.5041 75.0762 14.8662 74.5195 15.0971C73.8221 15.3741 73.075 15.504 72.325 15.4787C71.575 15.4534 70.8384 15.2733 70.1613 14.9499C69.4745 14.6053 68.9021 14.0691 68.5135 13.4062C68.1136 12.7185 67.9042 11.9365 67.9068 11.141C67.8863 10.3539 68.0693 9.57491 68.4381 8.87933C68.7899 8.22448 69.3153 7.6792 69.9567 7.30336C70.6273 6.92256 71.3861 6.72449 72.1573 6.72897C72.9264 6.70448 73.688 6.88804 74.3615 7.26028C75.0073 7.62111 75.5375 8.15759 75.8908 8.80753C76.27 9.51382 76.4674 10.3034 76.4652 11.1051C76.4652 11.2235 76.4652 11.3815 76.4436 11.5754ZM70.3157 8.73932C69.8138 9.2086 69.5063 9.84916 69.4541 10.5343L74.9682 10.4661C74.896 9.78555 74.5736 9.1561 74.0635 8.69983C73.5345 8.26337 72.8682 8.02795 72.1824 8.03517C71.4966 8.0424 70.8354 8.29181 70.3157 8.73932V8.73932Z" fill="#0073C0"/>
<path d="M84.1623 6.729C87.3933 6.729 88.2548 9.24194 88.2548 10.4589V15.4094H86.6968V10.6384C86.7476 9.95747 86.5327 9.28331 86.0973 8.7573C85.6952 8.33369 84.909 8.12548 84.1623 8.12548C83.8268 8.10257 83.4904 8.15701 83.1792 8.2846C82.868 8.41219 82.5903 8.60953 82.3674 8.86141C82.1346 9.08525 81.9506 9.35486 81.827 9.65326C81.7034 9.95167 81.643 10.2724 81.6494 10.5953V15.4094H80.0878L80.0304 11.001C80.0236 10.6405 80.0489 10.2801 80.1058 9.92402C80.3499 8.35164 81.4125 6.729 84.1623 6.729Z" fill="#0073C0"/>
<path d="M93.3382 15.2227C92.7888 15.0821 92.271 14.8385 91.8125 14.5047L92.4623 13.2697C92.8819 13.5624 93.348 13.7821 93.8408 13.9195C94.3716 14.0805 94.9231 14.1627 95.4778 14.1636C96.842 14.1636 97.5241 13.7735 97.5241 12.9933C97.5287 12.8766 97.5061 12.7603 97.4582 12.6538C97.4102 12.5473 97.3381 12.4534 97.2476 12.3794C97.0459 12.2178 96.8103 12.1036 96.5584 12.0456C96.2819 11.9738 95.8906 11.8984 95.3809 11.8086C94.8079 11.7315 94.2415 11.6115 93.6864 11.4497C93.2554 11.3107 92.8673 11.0635 92.5592 10.7317C92.2247 10.3392 92.056 9.83191 92.0889 9.31725C92.082 8.94855 92.1673 8.58397 92.3373 8.25668C92.5072 7.92939 92.7562 7.64979 93.0618 7.44332C93.8335 6.93305 94.7475 6.68159 95.6717 6.72534C96.2514 6.72472 96.829 6.79586 97.3912 6.93714C97.8906 7.04744 98.3685 7.23906 98.8057 7.50435L98.12 8.73928C97.3775 8.27448 96.5151 8.03736 95.6394 8.05719C95.1164 8.02653 94.595 8.1395 94.1316 8.38388C93.975 8.46608 93.8439 8.5894 93.7521 8.74057C93.6604 8.89174 93.6117 9.06505 93.6111 9.24186C93.6052 9.36799 93.6284 9.49376 93.6788 9.60952C93.7293 9.72527 93.8055 9.82793 93.9018 9.90959C94.1127 10.0793 94.3575 10.2018 94.6198 10.2686C94.907 10.344 95.3091 10.4301 95.8296 10.5271C96.3981 10.6128 96.9605 10.7351 97.5133 10.8932C97.9364 11.0292 98.3148 11.2773 98.6082 11.6112C98.929 11.9893 99.0911 12.4769 99.0605 12.9718C99.0681 13.341 98.9806 13.7059 98.8065 14.0316C98.6323 14.3572 98.3774 14.6326 98.0661 14.8314C97.251 15.331 96.3033 15.5714 95.3486 15.5206C94.6677 15.5175 93.9907 15.4171 93.3382 15.2227V15.2227Z" fill="#0073C0"/>
<path d="M104.355 6.61047H102.604V15.4919H104.355V6.61047Z" fill="#0073C0"/>
<path d="M53.8486 6.729C56.9503 6.729 57.7795 9.24194 57.7795 10.4589V15.4094H56.2861V10.6384C56.3363 9.96107 56.13 9.28962 55.7082 8.7573C55.324 8.33369 54.5666 8.12548 53.8486 8.12548C53.5256 8.1064 53.2026 8.16299 52.9053 8.29075C52.608 8.41852 52.3447 8.61392 52.1362 8.86141C51.9092 9.08869 51.7302 9.35933 51.6099 9.65722C51.4897 9.9551 51.4306 10.2741 51.4362 10.5953V15.4094H49.932L49.8638 11.001C49.8594 10.6407 49.8834 10.2806 49.9356 9.92402C50.1725 8.35164 51.1957 6.729 53.8486 6.729Z" fill="#0073C0"/>
<path d="M64.1412 9.91684C64.1951 10.2732 64.2191 10.6335 64.2129 10.9938L64.1591 15.4022H62.6585V10.5953C62.6616 10.2729 62.5996 9.95315 62.4762 9.65522C62.3528 9.3573 62.1706 9.08731 61.9405 8.86141C61.7323 8.6137 61.469 8.41814 61.1716 8.29036C60.8743 8.16258 60.5512 8.10611 60.2281 8.12548C59.5102 8.12548 58.7563 8.33369 58.3722 8.7573C57.9516 9.29014 57.7466 9.96154 57.7978 10.6384V15.4094H56.3008V10.4589C56.3008 9.23835 57.1301 6.729 60.2317 6.729C62.8847 6.729 63.9006 8.35164 64.1412 9.91684Z" fill="#0073C0"/>
<path d="M40.4514 6.76848C39.94 5.90834 39.1924 5.21308 38.2975 4.76531C37.3055 4.27306 36.2096 4.0268 35.1024 4.04733H30.3027V15.4058H35.0881C36.1951 15.4247 37.2906 15.1785 38.2831 14.6878C38.6145 14.5181 38.9284 14.3161 39.2201 14.0847C39.7132 13.6992 40.1306 13.2257 40.4514 12.6882C40.9754 11.7918 41.2425 10.7684 41.2232 9.73016C41.2426 8.69082 40.9755 7.66619 40.4514 6.76848ZM38.9616 11.7513C38.741 12.1183 38.4565 12.4429 38.1216 12.7098C37.923 12.8676 37.7089 13.0047 37.4826 13.119C36.8053 13.4522 36.0581 13.6184 35.3035 13.6037H32.0331V5.86741H35.3035C36.0586 5.85142 36.8064 6.01896 37.4826 6.35564C38.0966 6.65857 38.6101 7.13224 38.9616 7.71981C39.3179 8.32912 39.5004 9.02441 39.4893 9.73016C39.5022 10.4395 39.3196 11.1388 38.9616 11.7513Z" fill="#0073C0"/>
<path d="M110.749 14.7776C109.855 14.3064 109.11 13.5969 108.595 12.7278C108.075 11.8323 107.808 10.8123 107.823 9.77685C107.807 8.74036 108.076 7.71943 108.602 6.82594C109.121 5.96079 109.865 5.25336 110.756 4.7797C111.695 4.27691 112.746 4.02119 113.811 4.03658C114.672 4.02385 115.527 4.18629 116.324 4.51404C117.061 4.82124 117.717 5.29706 118.237 5.90334L116.898 7.1634C116.523 6.74525 116.062 6.41302 115.546 6.18936C115.031 5.96571 114.473 5.8559 113.911 5.86744C113.194 5.85638 112.486 6.02942 111.854 6.37003C111.261 6.69445 110.77 7.17809 110.436 7.7665C110.09 8.38442 109.914 9.08309 109.927 9.79121C109.914 10.5005 110.09 11.2005 110.436 11.8195C110.77 12.4069 111.261 12.8894 111.854 13.2124C112.485 13.5547 113.194 13.7278 113.911 13.715C114.475 13.7239 115.034 13.61 115.549 13.3812C116.064 13.1525 116.523 12.8143 116.895 12.3903L118.234 13.6683C117.711 14.2714 117.053 14.7415 116.313 15.0397C115.516 15.3668 114.662 15.5304 113.8 15.5207C112.736 15.5361 111.686 15.2804 110.749 14.7776V14.7776Z" fill="#0073C0"/>
<path d="M121.257 5.33252H122.948V15.3843H121.257V5.33252Z" fill="#0073C0"/>
<path d="M127.704 15.0037C127.13 14.7021 126.653 14.2441 126.329 13.6827C125.994 13.1002 125.822 12.4377 125.834 11.7656C125.822 11.0959 125.994 10.4357 126.329 9.85581C126.656 9.29804 127.132 8.84288 127.704 8.54191C128.313 8.2203 128.993 8.05733 129.682 8.06804C130.375 8.05691 131.06 8.21984 131.674 8.54191C132.246 8.84397 132.722 9.29887 133.049 9.85581C133.383 10.4363 133.554 11.0961 133.545 11.7656C133.555 12.4371 133.385 13.0991 133.053 13.6827C132.728 14.2433 132.251 14.7011 131.678 15.0037C131.064 15.3258 130.379 15.4887 129.685 15.4776C128.996 15.4889 128.314 15.3259 127.704 15.0037V15.0037ZM131.226 13.4062C131.432 13.1874 131.592 12.9295 131.697 12.6477C131.802 12.3659 131.849 12.066 131.836 11.7656C131.849 11.4658 131.802 11.1664 131.697 10.8852C131.592 10.604 131.432 10.3467 131.226 10.1286C130.812 9.72796 130.259 9.50388 129.684 9.50388C129.108 9.50388 128.555 9.72796 128.142 10.1286C127.938 10.3479 127.78 10.6057 127.677 10.8867C127.574 11.1678 127.528 11.4666 127.542 11.7656C127.531 12.0665 127.579 12.3666 127.685 12.6483C127.791 12.93 127.953 13.1877 128.16 13.4062C128.573 13.8069 129.126 14.031 129.702 14.031C130.277 14.031 130.83 13.8069 131.244 13.4062H131.226Z" fill="#0073C0"/>
<path d="M154.007 5.33252V15.3843H152.381V14.4509C152.104 14.7904 151.748 15.0556 151.343 15.2227C150.911 15.3962 150.449 15.4828 149.983 15.4776C149.328 15.4889 148.681 15.3306 148.105 15.0181C147.555 14.7153 147.101 14.2621 146.798 13.7114C146.475 13.1148 146.311 12.4443 146.325 11.7656C146.306 11.0862 146.467 10.4139 146.791 9.81632C147.096 9.26826 147.549 8.81678 148.098 8.51318C148.674 8.20233 149.321 8.04414 149.976 8.05367C150.425 8.04909 150.871 8.132 151.289 8.29779C151.681 8.45172 152.03 8.69805 152.305 9.01577V5.33252H154.007ZM151.275 13.7652C151.603 13.5794 151.87 13.3043 152.047 12.9719C152.233 12.6022 152.331 12.194 152.331 11.78C152.331 11.366 152.233 10.9578 152.047 10.5882C151.868 10.2571 151.601 9.98241 151.275 9.79478C150.938 9.61348 150.561 9.51858 150.178 9.51858C149.796 9.51858 149.419 9.61348 149.082 9.79478C148.756 9.98241 148.488 10.2571 148.31 10.5882C148.121 10.9571 148.023 11.3656 148.023 11.78C148.023 12.1944 148.121 12.6029 148.31 12.9719C148.487 13.3043 148.754 13.5794 149.082 13.7652C149.418 13.949 149.795 14.0454 150.178 14.0454C150.562 14.0454 150.939 13.949 151.275 13.7652V13.7652Z" fill="#0073C0"/>
<path d="M140.211 15.5207C137.195 15.5207 136.388 13.1765 136.388 12.0313V7.40747H137.852V11.8661C137.805 12.5028 138.005 13.1333 138.412 13.6252C138.771 14.0201 139.522 14.2175 140.207 14.2175C140.519 14.2359 140.831 14.1831 141.12 14.0631C141.409 13.943 141.666 13.7589 141.873 13.5247C142.093 13.3167 142.266 13.0654 142.384 12.7867C142.501 12.508 142.56 12.208 142.555 11.9056V7.40747H144.016L144.07 11.5287C144.075 11.8676 144.051 12.2062 143.998 12.541C143.772 14.0021 142.781 15.5207 140.211 15.5207Z" fill="#0073C0"/>
</g>
<defs>
<clipPath id="clip0_418_740">
<rect width="154" height="16.8977" fill="white" transform="translate(0 0.841553)"/>
</clipPath>
</defs>
</svg>
