<svg width="44" height="45" viewBox="0 0 44 45" fill="none" xmlns="http://www.w3.org/2000/svg">
<rect width="44" height="45" fill="#1E1E1E"/>
<g clip-path="url(#clip0_0_1)">
<rect x="-775" y="-344" width="1440" height="1385" rx="10" fill="#D3D3D3"/>
<rect width="1015" height="1300" transform="translate(-356 -266)" fill="#F2F2F2"/>
<rect x="-28" y="-26" width="100" height="120" rx="5" fill="white"/>
<g clip-path="url(#clip1_0_1)">
<path d="M14.6887 28.3234C14.2981 28.7139 14.2981 29.3471 14.6887 29.7376C15.0792 30.1282 15.7124 30.1282 16.1029 29.7376L14.6887 28.3234ZM21.4783 24.3622C21.8688 23.9717 21.8688 23.3385 21.4783 22.948C21.0878 22.5575 20.4546 22.5575 20.0641 22.948L21.4783 24.3622ZM15.9481 29.8876L15.0531 30.3336L15.9481 29.8876ZM15.5892 29.2455L16.382 28.636L15.5892 29.2455ZM14.6082 28.5442L14.1598 29.438L14.6082 28.5442ZM15.2493 28.9047L15.8608 28.1135L15.2493 28.9047ZM23.2078 33.1722L24.1422 33.5284L23.2078 33.1722ZM21.4608 36.5362L21.9509 37.4079L21.4608 36.5362ZM17.7195 33.4419L18.6145 32.9958L18.6145 32.9958L17.7195 33.4419ZM19.7879 36.6184L20.1901 35.7028L19.7879 36.6184ZM24.2909 16.3209L24.6441 17.2565L24.2909 16.3209ZM27.8957 15.4171L27.5737 16.3638L27.8957 15.4171ZM28.1537 20.1961L27.2192 19.8399L28.1537 20.1961ZM29.0691 16.5942L30.0169 16.2752L29.0691 16.5942ZM11.2674 21.2369L10.9143 20.3014L11.2674 21.2369ZM7.89563 22.9742L7.02541 22.4816L7.89563 22.9742ZM10.9818 26.7252L11.4302 25.8313L10.9818 26.7252ZM7.80856 24.6473L6.8919 25.047L6.8919 25.047L7.80856 24.6473ZM16.1029 29.7376L21.4783 24.3622L20.0641 22.948L14.6887 28.3234L16.1029 29.7376ZM11.6206 22.1725L24.6441 17.2565L23.9378 15.3853L10.9143 20.3014L11.6206 22.1725ZM27.2192 19.8399L22.2734 32.816L24.1422 33.5284L29.0881 20.5522L27.2192 19.8399ZM18.6145 32.9958L16.8431 29.4415L15.0531 30.3336L16.8245 33.888L18.6145 32.9958ZM15.0565 27.6503L11.4302 25.8313L10.5335 27.6191L14.1598 29.438L15.0565 27.6503ZM16.8431 29.4415C16.6945 29.1435 16.5653 28.8744 16.382 28.636L14.7964 29.855C14.8344 29.9045 14.8706 29.9675 15.0531 30.3336L16.8431 29.4415ZM14.1598 29.438C14.5254 29.6214 14.5884 29.6578 14.6378 29.696L15.8608 28.1135C15.6229 27.9296 15.3542 27.7997 15.0565 27.6503L14.1598 29.438ZM16.382 28.636C16.2314 28.4402 16.0563 28.2646 15.8608 28.1135L14.6378 29.696C14.6973 29.7419 14.7506 29.7954 14.7964 29.855L16.382 28.636ZM22.2734 32.816C21.8812 33.8451 21.6105 34.5524 21.3684 35.0492C21.2497 35.2927 21.1548 35.4493 21.0784 35.55C21.0046 35.6473 20.9675 35.6663 20.9708 35.6645L21.9509 37.4079C22.5315 37.0814 22.8872 36.4979 23.1662 35.9255C23.4571 35.3287 23.7642 34.5203 24.1422 33.5284L22.2734 32.816ZM16.8245 33.888C17.298 34.838 17.6829 35.6124 18.0309 36.1778C18.3647 36.7202 18.7758 37.266 19.3857 37.5339L20.1901 35.7028C20.1936 35.7044 20.1548 35.6891 20.0718 35.5994C19.9859 35.5067 19.8761 35.3602 19.7341 35.1295C19.4444 34.6588 19.1058 33.9815 18.6145 32.9958L16.8245 33.888ZM20.9708 35.6645C20.7311 35.7992 20.4419 35.8134 20.1901 35.7028L19.3857 37.5339C20.2131 37.8974 21.1631 37.8507 21.9509 37.4079L20.9708 35.6645ZM24.6441 17.2565C25.6521 16.876 26.344 16.6158 26.8645 16.4711C27.4086 16.3199 27.5602 16.3592 27.5737 16.3638L28.2177 14.4703C27.5946 14.2584 26.9332 14.3762 26.3287 14.5442C25.7007 14.7188 24.9085 15.0189 23.9378 15.3853L24.6441 17.2565ZM29.0881 20.5522C29.4576 19.5827 29.7602 18.7915 29.9369 18.164C30.1069 17.5601 30.2268 16.899 30.0169 16.2752L28.1213 16.9131C28.1259 16.9267 28.1647 17.0785 28.0117 17.6221C27.8653 18.1421 27.603 18.8331 27.2192 19.8399L29.0881 20.5522ZM27.5737 16.3638C27.8319 16.4516 28.0343 16.6547 28.1213 16.9131L30.0169 16.2752C29.7311 15.4261 29.0659 14.7588 28.2177 14.4703L27.5737 16.3638ZM10.9143 20.3014C9.92043 20.6765 9.11046 20.9812 8.51237 21.2704C7.93872 21.5477 7.35372 21.9016 7.02541 22.4816L8.76586 23.4669C8.76394 23.4702 8.78308 23.4332 8.88073 23.3596C8.98172 23.2835 9.13878 23.189 9.38283 23.071C9.88082 22.8303 10.5895 22.5617 11.6206 22.1725L10.9143 20.3014ZM11.4302 25.8313C10.4451 25.3372 9.76808 24.9965 9.29778 24.7054C9.06729 24.5627 8.92088 24.4525 8.82834 24.3663C8.73886 24.2829 8.72367 24.2441 8.72522 24.2476L6.8919 25.047C7.15824 25.6578 7.70334 26.0706 8.2451 26.406C8.80995 26.7556 9.58392 27.1428 10.5335 27.6191L11.4302 25.8313ZM7.02541 22.4816C6.58009 23.2682 6.53064 24.2184 6.8919 25.047L8.72522 24.2476C8.61527 23.9955 8.63033 23.7063 8.76586 23.4669L7.02541 22.4816Z" fill="#838383"/>
</g>
<path d="M29 3.75V7.5M40.25 15H36.5M21.0459 7.0459L23.6997 9.69971M34.3027 20.3027L36.9541 22.9541M36.9565 7.04346L34.3052 9.69482" stroke="#838383" stroke-width="2" stroke-linecap="round" stroke-linejoin="round"/>
</g>
<defs>
<clipPath id="clip0_0_1">
<rect x="-775" y="-344" width="1440" height="1385" rx="10" fill="white"/>
</clipPath>
<clipPath id="clip1_0_1">
<rect width="30" height="30" fill="white" transform="translate(21.2131 2) rotate(45)"/>
</clipPath>
</defs>
</svg>
