<svg width="14" height="14" viewBox="0 0 14 14" fill="none" xmlns="http://www.w3.org/2000/svg">
<path d="M11.0834 5.25V10.3833C11.0834 11.0367 11.0834 11.3634 10.9562 11.613C10.8443 11.8325 10.6659 12.011 10.4463 12.1228C10.1968 12.25 9.87008 12.25 9.21669 12.25H4.78335C4.12996 12.25 3.80326 12.25 3.5537 12.1228C3.33418 12.011 3.1557 11.8325 3.04385 11.613C2.91669 11.3634 2.91669 11.0367 2.91669 10.3833V3.61667C2.91669 2.96327 2.91669 2.63657 3.04385 2.38701C3.1557 2.16749 3.33418 1.98901 3.5537 1.87716C3.80326 1.75 4.12996 1.75 4.78335 1.75H7.58335M11.0834 5.25L7.58335 1.75M11.0834 5.25H9.45002C8.79663 5.25 8.46993 5.25 8.22036 5.12284C8.00084 5.01099 7.82236 4.83251 7.71051 4.61299C7.58335 4.36343 7.58335 4.03673 7.58335 3.38333V1.75M5.25002 9.91667H8.75002M5.25002 7.58333H8.75002M5.25002 5.25H5.83335" stroke="#0073C0" stroke-linecap="round" stroke-linejoin="round"/>
</svg>
