<svg width="14" height="14" viewBox="0 0 14 14" fill="none" xmlns="http://www.w3.org/2000/svg">
<path d="M12.25 3.50004H11.0833M12.25 7.00004H9.33333M12.25 10.5H9.33333M4.08333 11.6667V7.91077C4.08333 7.78943 4.08333 7.72875 4.07142 7.67072C4.06086 7.61924 4.04338 7.56941 4.01947 7.52261C3.99252 7.46985 3.95461 7.42248 3.87881 7.32772L1.95452 4.92236C1.87872 4.82761 1.84082 4.78023 1.81387 4.72747C1.78995 4.68067 1.77248 4.63085 1.76191 4.57936C1.75 4.52133 1.75 4.46066 1.75 4.33931V3.26671C1.75 2.94001 1.75 2.77666 1.81358 2.65188C1.86951 2.54212 1.95874 2.45288 2.06851 2.39695C2.19329 2.33337 2.35664 2.33337 2.68333 2.33337H7.81667C8.14336 2.33337 8.30671 2.33337 8.43149 2.39695C8.54126 2.45288 8.63049 2.54212 8.68642 2.65188C8.75 2.77666 8.75 2.94001 8.75 3.26671V4.33931C8.75 4.46066 8.75 4.52133 8.73809 4.57936C8.72752 4.63085 8.71005 4.68067 8.68613 4.72747C8.65918 4.78023 8.62128 4.82761 8.54548 4.92236L6.62119 7.32772C6.54539 7.42247 6.50748 7.46985 6.48053 7.52261C6.45662 7.56941 6.43914 7.61924 6.42858 7.67072C6.41667 7.72875 6.41667 7.78943 6.41667 7.91077V9.91671L4.08333 11.6667Z" stroke="#838383" stroke-linecap="round" stroke-linejoin="round"/>
</svg>
