<svg width="70" height="70" viewBox="0 0 70 70" fill="none" xmlns="http://www.w3.org/2000/svg">
<path d="M37.9167 58.3334V52.5C37.9167 44.4459 31.3875 37.9167 23.3333 37.9167C15.2792 37.9167 8.75 44.4459 8.75 52.5V58.3334H37.9167ZM37.9167 58.3334H61.25V55.4167C61.25 46.8256 54.7208 40.8334 46.6667 40.8334C42.5445 40.8334 38.8217 42.6577 36.1694 45.5907M32.0833 20.4167C32.0833 25.2492 28.1658 29.1667 23.3333 29.1667C18.5008 29.1667 14.5833 25.2492 14.5833 20.4167C14.5833 15.5842 18.5008 11.6667 23.3333 11.6667C28.1658 11.6667 32.0833 15.5842 32.0833 20.4167ZM52.5 26.25C52.5 29.4717 49.8883 32.0834 46.6667 32.0834C43.445 32.0834 40.8333 29.4717 40.8333 26.25C40.8333 23.0284 43.445 20.4167 46.6667 20.4167C49.8883 20.4167 52.5 23.0284 52.5 26.25Z" stroke="#D3D3D3" stroke-width="3" stroke-linecap="round" stroke-linejoin="round"/>
</svg>
