<svg width="30" height="30" viewBox="0 0 30 30" fill="none" xmlns="http://www.w3.org/2000/svg">
<path d="M24.4939 21.8216C20.7706 14.9564 15.3855 4.64208 14.8894 2.41748C14.8894 2.41748 13.8077 5.14395 11.8789 9.34436C12.5812 10.4327 14.3102 11.6049 14.9429 12.3572C12.7582 11.6678 11.428 10.2964 11.428 10.2964C9.18343 15.1318 6.01307 21.5058 2.41772 27.3916C4.1335 26.5151 8.86141 23.6187 12.2548 23.2376C12.1404 21.637 12.1786 17.1019 14.8094 17.0257C17.4403 16.9495 18.0885 20.7986 17.7072 23.2757C20.1474 23.8093 25.6379 26.2102 27.5824 27.5822L25.5044 23.6568C25.5044 23.6568 22.6257 21.6942 21.2341 20.6843C23.0261 20.7224 24.0492 21.5763 24.4939 21.8216V21.8216Z" fill="#838383"/>
</svg>
