<svg width="30" height="30" viewBox="0 0 30 30" fill="none" xmlns="http://www.w3.org/2000/svg">
<path d="M14.9963 2.8125L12.1875 5.62866H14.0625V11.25L15 12.1875L15.9375 11.25V5.62866H17.8125L14.9963 2.8125ZM6.5625 6.5625V10.3125L7.77466 9.10034L11.7993 13.125H13.125V11.7993L9.10034 7.77466L10.3125 6.5625H6.5625ZM11.6382 6.5625L10.426 7.77466L13.125 10.4736V6.5625H11.6382ZM16.875 6.5625V10.4736L19.574 7.77466L18.3618 6.5625H16.875ZM19.6875 6.5625L20.8997 7.77466L16.875 11.7993V13.125H18.2007L22.2253 9.10034L23.4375 10.3125V6.5625H19.6875ZM7.77466 10.426L6.5625 11.6382V13.125H10.4736L7.77466 10.426ZM22.2253 10.426L19.5264 13.125H23.4375V11.6382L22.2253 10.426ZM5.62866 12.1875L2.8125 15.0037L5.62866 17.8125V15.9375H11.25L12.1875 15L11.25 14.0625H5.62866V12.1875ZM24.3713 12.1875V14.0625H18.75L17.8125 15L18.75 15.9375H24.3713V17.8125L27.1875 14.9963L24.3713 12.1875ZM6.5625 16.875V18.3618L7.77466 19.574L10.4736 16.875H6.5625ZM11.7993 16.875L7.77466 20.8997L6.5625 19.6875V23.4375H10.3125L9.10034 22.2253L13.125 18.2007V16.875H11.7993ZM16.875 16.875V18.2007L20.8997 22.2253L19.6875 23.4375H23.4375V19.6875L22.2253 20.8997L18.2007 16.875H16.875ZM19.5264 16.875L22.2253 19.574L23.4375 18.3618V16.875H19.5264ZM15 17.8125L14.0625 18.75V24.3713H12.1875L15.0037 27.1875L17.8125 24.3713H15.9375V18.75L15 17.8125ZM13.125 19.5264L10.426 22.2253L11.6382 23.4375H13.125V19.5264ZM16.875 19.5264V23.4375H18.3618L19.574 22.2253L16.875 19.5264Z" fill="#838383"/>
</svg>
