<svg width="30" height="30" viewBox="0 0 30 30" fill="none" xmlns="http://www.w3.org/2000/svg">
<g clip-path="url(#clip0_418_736)">
<path d="M26.8874 10.134C26.7254 10.1274 26.5636 10.1532 26.4117 10.2099C26.2597 10.2665 26.1206 10.3529 26.0024 10.464C25.825 10.6316 25.7009 10.8477 25.6457 11.0854C25.5904 11.3232 25.6065 11.5719 25.6919 11.8005C25.7773 12.0292 25.9281 12.2276 26.1257 12.3709C26.3232 12.5142 26.5586 12.5962 26.8024 12.6065C27.1301 12.6176 27.4489 12.4983 27.6889 12.2748C27.9288 12.0513 28.0703 11.7417 28.0824 11.414C28.0932 11.0861 27.9736 10.7673 27.7499 10.5274C27.5262 10.2875 27.2165 10.146 26.8886 10.134H26.8874ZM27.0899 11.4865C26.7874 11.4865 26.5424 11.3227 26.5424 11.1215C26.5424 10.9177 26.7874 10.7552 27.0899 10.7552C27.3937 10.7552 27.6399 10.9177 27.6399 11.1215C27.6399 11.3215 27.3937 11.4865 27.0899 11.4865ZM29.9724 12.9615C29.9811 12.954 30.0024 12.9365 29.9999 12.919C29.9311 12.4902 29.2936 10.414 28.8099 9.91398C28.6774 9.77773 28.5711 9.64398 28.3549 9.51773C26.6074 8.50023 22.4636 7.88523 22.2686 7.85773C22.2686 7.85773 22.2499 7.85273 22.2361 7.86648C22.2249 7.87648 22.2236 7.89648 22.2236 7.89648L22.2049 8.85148C21.7811 8.70898 18.7049 7.71398 15.8199 7.61398C13.3749 7.53023 9.8124 7.21273 5.0899 10.1165L4.95115 10.204C2.7299 11.5877 1.19615 13.2965 0.394898 15.2802C0.143648 15.9052 -0.195102 17.3152 0.139898 18.6402C0.284898 19.2202 0.553648 19.8027 0.916148 20.324C1.73615 21.5027 3.1124 22.284 4.5949 22.4165C6.6874 22.604 8.27115 21.664 8.8349 19.904C9.2224 18.6902 8.8349 16.9077 7.3499 15.999C6.14115 15.2602 4.8424 15.4277 4.08865 15.9265C3.4349 16.3602 3.0649 17.034 3.07115 17.7727C3.08615 19.0852 4.2174 19.7827 5.0299 19.7852C5.26615 19.7852 5.5024 19.744 5.7699 19.6565C5.86969 19.6278 5.96513 19.5857 6.05365 19.5315L6.0849 19.5127L6.10365 19.5002L6.0974 19.504C6.21391 19.4256 6.30282 19.3126 6.3515 19.1809C6.40019 19.0492 6.40619 18.9055 6.36865 18.7702C6.32292 18.6104 6.21908 18.4734 6.07754 18.3862C5.936 18.299 5.76697 18.2679 5.60365 18.299L5.55865 18.309L5.49615 18.3277L5.40615 18.359C5.21865 18.4052 5.07865 18.409 5.04865 18.4102C4.95365 18.404 4.48615 18.264 4.48615 17.7515V17.7452C4.48615 17.5565 4.56115 17.424 4.6024 17.3527C4.74865 17.124 5.14615 16.9002 5.6849 16.9465C6.39115 17.009 6.90115 17.3715 7.23865 18.054C7.55115 18.689 7.4699 19.4715 7.02615 20.044C6.58865 20.6115 5.80615 20.8527 4.7649 20.7402C4.25371 20.687 3.76377 20.5076 3.33916 20.2181C2.91454 19.9285 2.56858 19.5379 2.3324 19.0815C1.84615 18.1627 1.8199 17.0727 2.26365 16.2365C3.32615 14.2315 5.3324 14.2527 6.43115 14.4427C8.05865 14.7252 9.91115 16.2265 10.5674 17.9602C10.6736 18.2352 10.7274 18.4552 10.7749 18.6552L10.8461 18.9552L12.6836 19.8527C12.7236 19.8715 12.7374 19.8777 12.7524 19.8665C12.7724 19.8527 12.7611 19.814 12.7611 19.814C12.7486 19.7727 12.7236 19.7352 12.6799 19.2202C12.6461 18.764 12.5749 17.514 13.2049 16.8952C13.4486 16.6515 13.8199 16.4365 14.1149 16.3665C15.3199 16.0727 16.7324 16.2752 18.0686 17.8215C18.7599 18.6215 19.0974 18.984 19.2674 19.1477C19.2674 19.1477 19.3049 19.1852 19.3261 19.2015C19.3486 19.2202 19.3636 19.2352 19.3949 19.2527C19.4511 19.284 21.6924 20.3152 21.6924 20.3152C21.6924 20.3152 21.7199 20.329 21.7386 20.3052C21.7586 20.2802 21.7399 20.2577 21.7399 20.2577C21.7249 20.2402 20.3186 18.4227 20.5686 16.9265C20.7661 15.734 21.7149 15.8427 23.0274 15.9902C23.4562 16.0402 23.9436 16.0965 24.4486 16.1077C25.8574 16.1165 27.3761 15.8565 28.3111 15.4465C28.9174 15.184 29.3036 15.009 29.5461 14.789C29.6336 14.7165 29.6786 14.599 29.7249 14.4727L29.7586 14.3902C29.7974 14.2877 29.8549 14.0727 29.8799 13.9552C29.8911 13.9027 29.9024 13.8515 29.8599 13.8177C29.8199 13.7877 29.7299 13.8427 29.7299 13.8427C29.3186 14.0902 28.2924 14.559 27.3311 14.579C26.1386 14.6027 23.7224 13.3715 23.4724 13.2415C23.3049 12.8415 23.1374 12.4427 22.9674 12.0452C24.6961 13.184 26.1299 13.814 27.2274 13.9102C28.4486 14.0202 29.4024 13.3527 29.8149 13.0752C29.8686 13.0402 29.9224 13.0002 29.9724 12.9602V12.9615ZM25.0686 11.3227C25.0861 10.849 25.2849 10.4102 25.6311 10.0877C25.8013 9.9287 26.0012 9.80487 26.2194 9.72336C26.4375 9.64184 26.6697 9.60424 26.9024 9.61273C27.3725 9.63 27.8166 9.83277 28.1375 10.1767C28.4584 10.5206 28.6301 10.9776 28.6149 11.4477C28.5961 11.9215 28.3974 12.3602 28.0524 12.6815C27.7061 13.0065 27.2549 13.174 26.7786 13.1577C26.3091 13.1395 25.8659 12.9363 25.5455 12.5926C25.2252 12.2488 25.0538 11.7924 25.0686 11.3227V11.3227Z" fill="#838383"/>
</g>
<defs>
<clipPath id="clip0_418_736">
<rect width="30" height="30" fill="white"/>
</clipPath>
</defs>
</svg>
