<svg width="30" height="30" viewBox="0 0 30 30" fill="none" xmlns="http://www.w3.org/2000/svg">
<path d="M10.1373 14.6646C10.1373 12.3471 11.2546 10.284 12.9899 8.95578L10.3339 4.81641C8.10797 6.37306 6.43303 8.62612 5.64282 11.2488C6.87986 12.024 7.70022 13.3787 7.70022 14.9182C7.70022 16.4032 6.94199 17.7124 5.77807 18.5004C6.62766 20.9847 8.28324 23.1114 10.4429 24.5873L12.913 20.3095C11.2205 18.9818 10.1373 16.9462 10.1373 14.6646Z" fill="#838383"/>
<path d="M6.44495 14.9186C6.44495 16.6504 5.00054 18.0554 3.22238 18.0554C1.44335 18.0554 0 16.6505 0 14.9186C0 13.1876 1.44335 11.7827 3.22238 11.7827C5.00054 11.7827 6.44495 13.1876 6.44495 14.9186Z" fill="#838383"/>
<path d="M24.5401 22.5037C25.2895 22.5037 25.995 22.6822 26.615 22.9991C28.546 21.0176 29.7937 18.403 30 15.5069L24.9954 15.4126C24.6101 19.0673 21.4391 21.9146 17.585 21.9146C16.5183 21.9146 15.5002 21.6961 14.5815 21.3009L12.0938 25.5389C13.7522 26.3335 15.614 26.7799 17.585 26.7799C18.4355 26.7799 19.2697 26.6961 20.0735 26.5363C20.245 24.2824 22.1789 22.5037 24.5401 22.5037Z" fill="#838383"/>
<path d="M27.7603 26.8638C27.7603 28.5953 26.3189 29.9996 24.5397 29.9996C22.7606 29.9996 21.3181 28.5953 21.3181 26.8638C21.3181 25.131 22.7606 23.7271 24.5397 23.7271C26.3189 23.7271 27.7603 25.131 27.7603 26.8638Z" fill="#838383"/>
<path d="M26.9579 6.69683C26.2287 7.19958 25.3364 7.49714 24.3728 7.49714C21.8978 7.49714 19.8939 5.54534 19.8939 3.13688C19.8939 3.00896 19.8998 2.88523 19.9095 2.76108C19.1571 2.62081 18.3795 2.54883 17.5853 2.54883C15.5959 2.54883 13.7146 3.0047 12.0474 3.81206L14.5205 8.05285C15.4558 7.64257 16.4932 7.41178 17.5853 7.41178C21.4053 7.41178 24.5539 10.2131 24.9841 13.8209L29.9886 13.6721C29.7676 11.0117 28.661 8.595 26.9579 6.69683Z" fill="#838383"/>
<path d="M27.5924 3.13733C27.5924 4.86963 26.1539 6.27411 24.3729 6.27411C22.5938 6.27411 21.1514 4.86963 21.1514 3.13733C21.1513 1.4049 22.5938 0 24.3728 0C26.1538 0 27.5924 1.4049 27.5924 3.13733Z" fill="#838383"/>
</svg>
