<svg width="50" height="50" viewBox="0 0 50 50" fill="none" xmlns="http://www.w3.org/2000/svg">
<path d="M11.0001 17.2491H19.316L18.0293 22.1797C17.8525 22.8376 17.4647 23.4193 16.9255 23.8356C16.3893 24.2514 15.7274 24.4721 15.0489 24.4611H11.1841C10.3425 24.4494 9.52159 24.7217 8.8537 25.2338C8.16942 25.7635 7.67293 26.4986 7.43706 27.3312C7.26668 27.9429 7.24774 28.587 7.38186 29.2077C7.50509 29.7739 7.74807 30.3071 8.09448 30.7716C8.44547 31.2316 8.89907 31.6033 9.41913 31.857C9.96783 32.129 10.573 32.2677 11.1853 32.2618H13.5403C13.7506 32.2582 13.9587 32.3047 14.1474 32.3974C14.3362 32.4902 14.5002 32.6266 14.6257 32.7953C14.7633 32.9583 14.8579 33.1531 14.9007 33.362C14.9436 33.5709 14.9334 33.7873 14.871 33.9912L13.3992 39.437H10.8235C9.12816 39.4539 7.45439 39.056 5.94805 38.2779C4.50148 37.5395 3.23614 36.4903 2.24272 35.2055C1.25776 33.9219 0.572561 32.4341 0.237346 30.8513C-0.118284 29.1884 -0.0737226 27.4648 0.367357 25.8225L0.514541 25.2706C1.13697 22.9652 2.50067 20.9287 4.39527 19.4753C5.32439 18.7708 6.35935 18.2181 7.46159 17.8378C8.59943 17.4433 9.79584 17.2443 11.0001 17.2491V17.2491Z" fill="#FF6C2C"/>
<path d="M15.1949 39.4372L22.4449 12.2818C22.6217 11.624 23.0095 11.0423 23.5487 10.626C24.0844 10.2101 24.746 9.98939 25.4241 10.0005H33.1156C34.811 9.98373 36.4847 10.3816 37.9911 11.1596C39.4362 11.8968 40.6992 12.9462 41.6888 14.2317C42.6784 15.5173 43.3698 17.0067 43.7128 18.5923C44.0811 20.2549 44.0305 21.9829 43.5657 23.6211L43.4185 24.173C43.1082 25.3313 42.6111 26.4313 41.9466 27.4295C40.9635 28.9094 39.6288 30.1227 38.0621 30.9606C36.4953 31.7986 34.7452 32.2352 32.9685 32.2313H26.3084L27.6331 27.2639C27.8171 26.6194 28.2043 26.0516 28.7369 25.6449C29.2731 25.229 29.9351 25.0083 30.6135 25.0193H32.7477C33.6072 25.0203 34.4426 24.7351 35.1222 24.2088C35.8017 23.6825 36.2868 22.9449 36.5009 22.1125C36.6702 21.5233 36.6871 20.9008 36.5499 20.3033C36.4252 19.7368 36.1806 19.2035 35.8324 18.7395C35.4786 18.2775 35.026 17.9003 34.5077 17.6356C33.9644 17.3531 33.3601 17.2079 32.7477 17.2125H28.6266L23.2544 37.1926C23.0703 37.837 22.6831 38.4049 22.1505 38.8116C21.6263 39.2234 20.9773 39.4441 20.3107 39.4372H15.1949Z" fill="#FF6C2C"/>
<path d="M44.2991 13.9634H43.8441V10.4555H42.6053V10.052H45.5379V10.4555H44.2991V13.9634Z" fill="#FF6C2C"/>
<path d="M47.8573 13.9634L46.5302 10.4911H46.5093C46.5339 10.7658 46.5461 11.0929 46.5461 11.4723V13.9634H46.1266V10.052H46.8111L48.0498 13.2778H48.0719L49.3205 10.052H50V13.9634H49.5511V11.4429C49.5511 11.1534 49.5646 10.8407 49.5891 10.5009H49.5683L48.224 13.9634H47.8573Z" fill="#FF6C2C"/>
</svg>
