<svg width="50" height="50" viewBox="0 0 50 50" fill="none" xmlns="http://www.w3.org/2000/svg">
<g clip-path="url(#clip0_418_501)">
<path d="M28.1397 23.5402H31.4948C31.5727 23.5402 31.6473 23.5094 31.7025 23.4545C31.7577 23.3996 31.7889 23.3251 31.7893 23.2473V20.2595C31.7893 20.1814 31.7583 20.1065 31.7031 20.0513C31.6478 19.9961 31.5729 19.965 31.4948 19.965H28.1397C28.0621 19.965 27.9876 19.9959 27.9326 20.0508C27.8777 20.1058 27.8468 20.1803 27.8468 20.258V23.2473C27.8468 23.4088 27.9782 23.5402 28.1397 23.5402M23.4626 14.9427H26.8161C26.8942 14.9427 26.9691 14.9117 27.0243 14.8565C27.0796 14.8012 27.1106 14.7263 27.1106 14.6482V11.6589C27.1102 11.5811 27.079 11.5066 27.0238 11.4517C26.9686 11.3968 26.8939 11.366 26.8161 11.366H23.4626C23.3849 11.366 23.3104 11.3968 23.2555 11.4518C23.2005 11.5067 23.1697 11.5812 23.1697 11.6589V14.6482C23.1697 14.8097 23.2995 14.9411 23.4626 14.9411M23.4626 19.2415H26.8161C26.8941 19.241 26.9687 19.2099 27.0239 19.1547C27.079 19.0996 27.1102 19.0249 27.1106 18.947V15.9592C27.1102 15.8814 27.079 15.8069 27.0238 15.752C26.9686 15.6971 26.8939 15.6663 26.8161 15.6663H23.4626C23.3849 15.6663 23.3104 15.6972 23.2555 15.7521C23.2005 15.807 23.1697 15.8815 23.1697 15.9592V18.947C23.1697 19.1085 23.2995 19.2399 23.4626 19.2415ZM18.8234 19.2415H22.1801C22.2576 19.2406 22.3317 19.2092 22.3863 19.1541C22.4408 19.099 22.4714 19.0245 22.4714 18.947V15.9592C22.4714 15.8815 22.4406 15.807 22.3856 15.7521C22.3307 15.6972 22.2562 15.6663 22.1785 15.6663H18.825C18.7473 15.6663 18.6728 15.6972 18.6179 15.7521C18.5629 15.807 18.5321 15.8815 18.5321 15.9592V18.947C18.5321 19.1085 18.6635 19.2399 18.825 19.2415M14.132 19.2415H17.4871C17.5649 19.241 17.6394 19.2098 17.6943 19.1547C17.7492 19.0995 17.78 19.0248 17.78 18.947V15.9592C17.78 15.8815 17.7491 15.807 17.6942 15.7521C17.6393 15.6972 17.5648 15.6663 17.4871 15.6663H14.132C14.0542 15.6663 13.9795 15.6971 13.9243 15.752C13.8691 15.8069 13.8379 15.8814 13.8375 15.9592V18.947C13.8375 19.1085 13.9705 19.2399 14.132 19.2415M23.4626 23.5402H26.8161C26.8939 23.5402 26.9686 23.5094 27.0238 23.4545C27.079 23.3996 27.1102 23.3251 27.1106 23.2473V20.2595C27.1106 20.1814 27.0796 20.1065 27.0243 20.0513C26.9691 19.9961 26.8942 19.965 26.8161 19.965H23.4626C23.3849 19.965 23.3104 19.9959 23.2555 20.0508C23.2005 20.1058 23.1697 20.1803 23.1697 20.258V23.2473C23.1697 23.4088 23.2995 23.5402 23.4626 23.5402M18.8234 23.5402H22.1801C22.2575 23.5398 22.3316 23.5088 22.3862 23.4539C22.4408 23.399 22.4714 23.3247 22.4714 23.2473V20.2595C22.4716 20.2211 22.4643 20.183 22.4497 20.1473C22.4352 20.1117 22.4138 20.0793 22.3867 20.052C22.3597 20.0246 22.3275 20.0029 22.2921 19.988C22.2566 19.973 22.2185 19.9653 22.1801 19.965H18.8234C18.746 19.9655 18.6719 19.9965 18.6173 20.0514C18.5627 20.1063 18.5321 20.1806 18.5321 20.258V23.2473C18.5321 23.4088 18.6635 23.5402 18.825 23.5402M14.132 23.5402H17.4871C17.5648 23.5402 17.6393 23.5094 17.6942 23.4544C17.7491 23.3995 17.78 23.325 17.78 23.2473V20.2595C17.7802 20.2211 17.7728 20.183 17.7583 20.1473C17.7438 20.1117 17.7224 20.0793 17.6953 20.052C17.6683 20.0246 17.6361 20.0029 17.6006 19.988C17.5652 19.973 17.5271 19.9653 17.4887 19.965H14.132C14.0539 19.965 13.979 19.9961 13.9238 20.0513C13.8685 20.1065 13.8375 20.1814 13.8375 20.2595V23.2473C13.8375 23.4088 13.9705 23.5402 14.132 23.5402M9.50866 23.5402H12.8653C12.9427 23.5398 13.0168 23.5088 13.0714 23.4539C13.126 23.399 13.1567 23.3247 13.1567 23.2473V20.2595C13.1569 20.2211 13.1495 20.183 13.135 20.1473C13.1204 20.1117 13.099 20.0793 13.072 20.052C13.0449 20.0246 13.0128 20.0029 12.9773 19.988C12.9418 19.973 12.9038 19.9653 12.8653 19.965H9.50866C9.43125 19.9655 9.35715 19.9965 9.30256 20.0514C9.24797 20.1063 9.21733 20.1806 9.21733 20.258V23.2473C9.21733 23.4088 9.34716 23.5402 9.51025 23.5402M43.6248 21.6592C43.5218 21.5785 42.5608 20.8517 40.5309 20.8517C39.9958 20.8533 39.4606 20.8992 38.9317 20.9895C38.5391 18.2978 36.3145 16.9836 36.2147 16.9266L35.6701 16.6115L35.3123 17.1293C34.8626 17.8228 34.5364 18.5891 34.3432 19.3935C33.9791 20.9293 34.2008 22.3733 34.9813 23.6067C34.0393 24.1324 32.5272 24.2606 32.22 24.2717H7.18908C6.87481 24.2721 6.57349 24.3969 6.35097 24.6189C6.12845 24.8408 6.00283 25.1418 6.00158 25.456C5.97226 27.6487 6.34357 29.8283 7.09725 31.8875C7.96016 34.1485 9.24266 35.8142 10.9131 36.8339C12.7814 37.9786 15.8214 38.6341 19.2652 38.6341C20.8213 38.6389 22.3745 38.4979 23.9043 38.213C26.0305 37.8224 28.0764 37.079 29.9574 36.0137C31.508 35.1162 32.9035 33.9742 34.0899 32.6317C36.0722 30.3865 37.2534 27.8865 38.1322 25.665H38.4821C40.6544 25.665 41.9892 24.7958 42.7254 24.0675C43.2147 23.6035 43.5963 23.0383 43.8448 22.4113L44 21.9553L43.6248 21.6592Z" fill="#0073C0"/>
</g>
<defs>
<clipPath id="clip0_418_501">
<rect width="38" height="38" fill="white" transform="translate(6 6)"/>
</clipPath>
</defs>
</svg>
