<svg width="50" height="50" viewBox="0 0 50 50" fill="none" xmlns="http://www.w3.org/2000/svg">
<path d="M24.935 7.5H25.0163C25.4327 7.69833 25.8382 7.91864 26.2313 8.16C30.7554 10.7617 35.2796 13.3642 39.8038 15.9675C39.9788 16.0609 40.1217 16.2048 40.214 16.3804C40.3062 16.5561 40.3436 16.7554 40.3213 16.9525C40.3113 22.4388 40.3213 27.9237 40.315 33.4075C40.2561 33.6692 40.0962 33.897 39.87 34.0412C35.0592 36.8112 30.2479 39.5796 25.4363 42.3463C25.3196 42.4351 25.1791 42.487 25.0327 42.4953C24.8863 42.5035 24.7408 42.4677 24.615 42.3925C19.7983 39.6308 14.9863 36.8642 10.1788 34.0925C10.0225 34.0186 9.89164 33.9001 9.80266 33.752C9.71368 33.6038 9.67056 33.4326 9.67875 33.26C9.67875 27.775 9.67875 22.2904 9.67875 16.8062C9.66696 16.6344 9.70669 16.4629 9.79286 16.3137C9.87903 16.1645 10.0077 16.0444 10.1625 15.9687C14.6808 13.3704 19.1992 10.7704 23.7175 8.16875C24.12 7.93875 24.515 7.695 24.935 7.5Z" fill="#019639"/>
<path d="M15.9588 18.1725C15.9588 22.6966 15.9588 27.2212 15.9588 31.7462C15.953 31.9968 15.9972 32.246 16.0889 32.4793C16.1805 32.7126 16.3177 32.9253 16.4925 33.105C16.8275 33.4359 17.2659 33.642 17.7345 33.6889C18.2031 33.7357 18.6736 33.6205 19.0675 33.3625C19.3312 33.1833 19.5471 32.9424 19.6963 32.6607C19.8455 32.3789 19.9236 32.065 19.9238 31.7462C19.9238 28.4712 19.9175 25.1962 19.9238 21.9212C22.9096 25.4962 25.9017 29.0662 28.9 32.6312C29.3166 33.0532 29.8324 33.3639 30.4003 33.5347C30.9681 33.7054 31.5698 33.7309 32.15 33.6087C32.5597 33.528 32.9328 33.318 33.2142 33.0095C33.4957 32.701 33.6708 32.3104 33.7138 31.895C33.7204 27.2775 33.7204 22.6604 33.7138 18.0437C33.6707 17.5509 33.4445 17.0921 33.0798 16.7579C32.7151 16.4237 32.2384 16.2383 31.7438 16.2383C31.2491 16.2383 30.7724 16.4237 30.4077 16.7579C30.043 17.0921 29.8168 17.5509 29.7738 18.0437C29.7738 21.3712 29.7538 24.695 29.7738 28.0212C26.8413 24.5637 23.945 21.0762 21.0238 17.6062C20.6386 17.1124 20.1288 16.7302 19.5467 16.499C18.9647 16.2679 18.3315 16.1961 17.7125 16.2912C17.2436 16.3434 16.8089 16.5619 16.4871 16.907C16.1654 17.2521 15.978 17.701 15.9588 18.1725V18.1725Z" fill="white"/>
</svg>
