<svg width="50" height="50" viewBox="0 0 50 50" fill="none" xmlns="http://www.w3.org/2000/svg">
<path d="M24.999 6C14.5087 6 6 14.5068 6 24.999C6 35.4932 14.5068 44 24.999 44C35.4932 44 44 35.4932 44 25.001C44 14.5068 35.4932 6 25.001 6H24.999ZM8.71578 24.999C8.71578 22.7017 9.22546 20.5165 10.1269 18.5443L17.8958 39.274C12.4623 36.7047 8.71578 31.2769 8.71578 25.001V24.999ZM25.0029 40.8658C23.4463 40.8643 21.8975 40.6473 20.4005 40.2211L25.2881 26.3893L30.2899 39.7476L30.404 39.9682C28.6653 40.5629 26.8404 40.8662 25.0029 40.8658V40.8658ZM27.2394 17.563C28.2188 17.5116 29.1031 17.4108 29.1031 17.4108C29.9799 17.31 29.8791 16.0568 29.0024 16.1043C29.0024 16.1043 26.3626 16.3059 24.6586 16.3059C23.0611 16.3059 20.3681 16.1043 20.3681 16.1043C19.4895 16.0549 19.3887 17.3595 20.2635 17.4127C20.2635 17.4127 21.0965 17.5116 21.9714 17.563L24.5103 24.3334L20.9463 34.7458L15.0184 17.5649C16.0016 17.5154 16.8821 17.4146 16.8821 17.4146C17.757 17.3119 17.6562 16.0587 16.7794 16.1062C16.7794 16.1062 14.1416 16.3078 12.4414 16.3078L11.3935 16.2888C14.3033 11.9831 19.3088 9.13798 24.9971 9.13798C29.2382 9.13798 33.0969 10.7165 35.9972 13.3029L35.7842 13.2877C34.1848 13.2877 33.0513 14.6437 33.0513 16.1024C33.0513 17.4108 33.8234 18.5139 34.6488 19.8223C35.2745 20.8816 35.9915 22.2376 35.9915 24.1965C35.9915 25.5544 35.459 27.1291 34.7553 29.3276L33.1274 34.6127L27.2394 17.563V17.563ZM33.1863 38.7054L38.1634 24.6986C39.0952 22.4354 39.3995 20.6287 39.3995 19.0179C39.3995 18.434 39.3615 17.892 39.293 17.3861C40.6015 19.71 41.2886 22.3321 41.288 24.999C41.2861 30.8509 38.0302 35.9592 33.1863 38.7054V38.7054Z" fill="#0073C0"/>
</svg>
